<?xml version="1.0" standalone="no"?>
<!DOCTYPE svg PUBLIC "-//W3C//DTD SVG 20010904//EN"
 "http://www.w3.org/TR/2001/REC-SVG-20010904/DTD/svg10.dtd">
<svg version="1.0" xmlns="http://www.w3.org/2000/svg"
 width="599.000000pt" height="342.000000pt" viewBox="0 0 599.000000 342.000000"
 preserveAspectRatio="xMidYMid meet">

<g transform="translate(0.000000,342.000000) scale(0.100000,-0.100000)"
fill="#000000" stroke="none">
<path d="M1740 2671 c-13 -26 -14 -73 0 -51 5 8 12 11 16 8 3 -4 -6 -22 -21
-40 -23 -27 -27 -39 -23 -79 3 -26 1 -54 -4 -63 -6 -10 -5 -16 2 -16 6 0 13 7
16 15 5 12 12 10 36 -10 16 -14 38 -25 48 -25 10 0 28 -8 39 -17 21 -17 21
-19 6 -50 -9 -18 -14 -37 -11 -42 3 -5 -16 -9 -44 -9 -53 -1 -68 16 -55 58 5
16 2 20 -14 20 -15 0 -19 -4 -14 -17 6 -15 5 -16 -9 -3 -9 8 -14 18 -12 22 2
3 -5 4 -16 1 -11 -3 -20 -10 -20 -15 0 -5 -21 7 -46 27 -26 19 -50 35 -54 35
-5 0 -11 -22 -15 -50 -6 -41 -2 -59 19 -106 28 -61 32 -89 15 -99 -6 -4 -8
-22 -6 -41 4 -25 1 -34 -9 -34 -8 0 -14 5 -14 10 0 6 5 10 12 10 6 0 9 2 7 5
-3 2 -31 -9 -63 -25 -32 -17 -69 -30 -82 -30 -16 0 -32 -13 -53 -44 -20 -29
-37 -43 -48 -41 -10 2 -24 4 -30 4 -19 1 -15 21 4 21 9 0 14 3 10 6 -9 9 -48
-6 -42 -17 3 -5 -2 -6 -11 -2 -11 4 -15 3 -10 -5 4 -7 -1 -10 -15 -7 -15 3
-19 0 -15 -10 3 -10 -3 -17 -19 -21 -14 -3 -25 -10 -25 -15 0 -4 -12 -15 -27
-23 -16 -8 -26 -18 -24 -23 3 -4 -2 -9 -10 -11 -9 -1 -22 10 -30 25 -15 30
-28 43 -44 43 -5 0 -3 -5 5 -11 12 -8 11 -9 -5 -6 -11 2 -19 8 -18 14 1 6 -9
14 -22 17 -14 4 -25 11 -25 16 0 5 -7 7 -15 4 -8 -4 -15 -1 -15 5 0 6 -3 10
-7 9 -13 -4 -103 24 -109 33 -3 5 -7 18 -9 29 -3 16 2 20 21 20 15 0 24 -6 24
-15 0 -10 10 -15 28 -16 15 0 21 -3 15 -6 -7 -2 -13 -9 -13 -14 0 -6 5 -7 10
-4 6 3 17 -1 26 -9 8 -9 26 -16 40 -16 13 0 24 -5 24 -12 0 -6 3 -8 6 -5 4 4
1 14 -6 22 -11 13 -11 19 3 33 10 9 17 11 17 5 0 -6 11 -10 25 -10 13 0 22 3
19 8 -8 13 10 11 26 -3 11 -10 11 -9 0 7 -8 11 -21 24 -27 28 -7 4 -13 16 -13
27 0 12 -12 22 -37 31 -31 10 -34 13 -19 19 27 9 10 17 -61 29 -73 11 -133 39
-113 51 10 6 7 10 -11 13 -13 2 -1 3 26 0 36 -2 46 -1 35 7 -8 5 -35 10 -60
11 -38 1 -41 2 -20 9 14 4 45 9 70 9 33 1 41 4 30 11 -8 5 -25 10 -38 10 -44
0 -12 18 45 25 73 9 51 20 -62 31 -82 7 -82 16 0 29 37 6 38 8 20 21 -28 21
-76 17 -129 -11 -57 -30 -65 -31 -41 -5 21 23 13 39 -10 20 -12 -10 -15 -10
-15 1 0 8 4 20 9 28 10 16 4 41 -10 41 -5 0 -16 -14 -25 -31 l-16 -32 -24 29
c-13 16 -23 23 -24 15 0 -11 -3 -11 -15 -1 -22 18 -26 9 -15 -31 6 -18 10 -37
10 -41 0 -14 -23 -4 -46 20 -23 24 -40 30 -28 10 4 -7 -2 -4 -14 6 -27 23 -28
30 -4 22 14 -5 14 -4 -2 9 -23 18 -72 20 -82 3 -5 -8 4 -9 32 -5 23 4 33 3 25
-2 -11 -7 -9 -11 9 -21 12 -6 19 -14 16 -17 -3 -4 0 -13 7 -21 6 -9 -1 -6 -18
6 -40 29 -139 54 -168 42 -22 -9 -22 -9 3 -9 34 -1 130 -37 149 -56 14 -14 12
-15 -19 -10 l-35 5 40 -15 c69 -27 61 -34 -16 -15 -82 22 -109 24 -109 11 0
-5 19 -12 42 -16 24 -4 67 -18 95 -31 30 -13 55 -19 58 -13 10 15 32 10 39 -7
6 -14 0 -16 -41 -11 -27 3 -78 3 -114 -1 -56 -7 -70 -12 -92 -37 -15 -17 -27
-36 -27 -42 0 -7 -4 -13 -8 -13 -9 0 -34 -62 -27 -68 3 -3 16 7 29 21 13 14
37 29 53 32 15 4 38 11 51 16 30 12 85 12 77 -1 -3 -5 -13 -6 -21 -3 -9 3 -19
0 -24 -7 -4 -6 -24 -12 -44 -12 -20 0 -36 -4 -36 -9 0 -5 -6 -9 -14 -9 -7 0
-19 -6 -25 -14 -10 -12 -8 -14 11 -9 22 4 22 4 5 -11 -11 -8 -25 -12 -33 -9
-8 3 -14 0 -14 -6 0 -6 -18 -14 -40 -17 -22 -4 -37 -11 -34 -16 3 -5 13 -7 23
-4 9 3 6 -2 -7 -10 -30 -22 -28 -36 4 -24 33 13 36 13 29 -2 -4 -7 0 -5 8 4 8
10 18 14 23 10 4 -4 3 0 -3 8 -10 14 -7 15 24 12 31 -4 35 -2 29 13 -4 13 -2
16 9 11 8 -3 15 -1 15 3 0 5 7 11 15 15 12 4 15 -1 12 -27 -4 -45 -12 -54 -44
-54 -15 0 -29 -6 -31 -12 -2 -6 -10 -11 -18 -11 -8 0 -14 -4 -14 -10 0 -6 10
-5 25 2 19 9 28 9 37 0 8 -8 8 -12 1 -12 -6 0 -13 -9 -16 -20 -4 -16 -2 -18
12 -10 10 5 23 16 31 24 18 22 33 20 21 -2 -8 -15 -6 -19 7 -19 20 0 44 16 37
27 -2 4 7 5 20 2 19 -3 25 0 25 14 0 14 3 15 12 6 7 -7 13 -16 13 -20 2 -16
18 -58 28 -71 6 -7 12 -18 13 -25 1 -6 5 -19 9 -29 6 -13 3 -16 -9 -11 -9 3
-13 10 -10 15 3 5 1 9 -5 9 -5 0 -12 -4 -15 -9 -3 -5 -23 -12 -43 -15 -21 -4
-50 -9 -65 -12 l-28 -6 18 31 c9 17 23 29 29 26 7 -2 12 -1 11 3 -2 13 14 42
24 42 5 0 6 -6 2 -12 -6 -10 -4 -10 7 -2 8 6 21 14 29 17 8 4 -15 5 -51 4 -48
-1 -65 -5 -62 -14 3 -7 0 -13 -7 -13 -6 0 -9 -4 -5 -9 3 -5 1 -12 -5 -16 -6
-4 -8 -10 -5 -15 3 -5 0 -12 -6 -16 -8 -5 -10 -2 -4 7 4 8 -6 -2 -23 -21 -17
-19 -31 -29 -32 -22 0 7 6 15 14 18 8 3 12 12 10 19 -3 7 0 16 5 20 6 3 9 11
5 16 -3 5 5 18 18 29 l23 20 -30 -15 c-16 -8 -35 -15 -42 -15 -15 0 -29 -43
-15 -48 17 -5 -25 -66 -50 -74 l-23 -6 22 -1 c20 -1 22 -5 17 -48 -3 -34 -1
-42 5 -28 13 30 38 48 57 41 13 -5 15 -2 11 14 -5 19 -2 21 25 15 25 -6 30 -4
25 8 -7 18 8 32 43 41 17 5 21 4 12 -2 -8 -5 -13 -12 -13 -16 1 -3 -6 -20 -14
-36 -19 -37 -4 -40 20 -4 9 14 22 23 30 20 8 -3 22 6 32 18 21 28 52 39 72 27
15 -10 23 -71 9 -71 -4 0 -8 -9 -8 -20 0 -17 -4 -19 -18 -11 -13 7 -23 2 -42
-19 -26 -28 -26 -28 -5 -40 11 -7 17 -9 13 -5 -3 3 3 16 14 27 16 16 22 17 34
7 18 -15 10 -68 -13 -86 -8 -6 -12 -16 -9 -21 3 -5 8 -60 10 -122 4 -111 4
-112 -17 -106 -12 3 -37 6 -55 6 -25 0 -35 5 -39 20 -3 11 -10 20 -15 20 -6 0
-8 -6 -5 -14 6 -15 -9 -16 -30 -3 -7 4 -24 5 -38 1 -14 -3 -40 -3 -59 0 -29 6
-33 10 -28 32 2 13 7 22 10 20 3 -3 18 8 34 25 34 35 44 32 33 -8 -15 -52 -15
-59 0 -39 8 10 12 23 9 27 -3 5 -1 9 4 9 5 0 13 15 17 33 7 29 8 30 12 8 3
-13 0 -28 -6 -34 -13 -13 -15 -30 -2 -23 5 4 11 2 13 -4 2 -6 8 -6 18 0 13 9
13 11 1 19 -18 12 -7 41 19 48 11 3 20 9 20 15 0 5 7 5 18 0 9 -5 23 -7 30 -5
7 3 12 -4 13 -19 0 -22 1 -22 9 -3 13 31 12 35 -14 35 -38 0 -40 17 -5 35 17
9 28 19 25 22 -3 3 -16 -1 -28 -9 -13 -8 -36 -18 -53 -22 -19 -4 -25 -3 -16 2
8 6 9 12 3 16 -6 3 -17 -1 -25 -9 -9 -8 -26 -15 -39 -15 -20 1 -21 2 -7 13 10
7 18 31 20 57 4 43 6 46 52 67 27 13 55 23 63 23 8 0 14 4 14 9 0 6 -12 6 -31
-1 -16 -6 -33 -8 -36 -4 -3 3 -17 -4 -32 -15 l-26 -21 -6 24 c-5 16 -7 18 -8
6 -1 -16 -12 -22 -33 -19 -4 0 -5 -6 -2 -14 4 -9 -1 -17 -10 -20 -9 -3 -24 -8
-33 -12 -10 -3 -22 -5 -26 -4 -4 0 -10 -6 -13 -14 -12 -31 -61 -46 -124 -39
l-59 7 12 -27 c10 -22 14 -24 23 -11 6 8 17 15 23 15 17 0 43 -28 37 -39 -3
-5 6 -11 19 -14 14 -2 28 0 31 5 4 6 10 5 15 -3 7 -11 12 -12 29 -1 28 17 39
15 33 -8 -3 -11 -10 -20 -17 -20 -6 0 -17 -9 -24 -20 -10 -16 -24 -20 -70 -21
-31 0 -51 -3 -44 -6 22 -9 2 -23 -34 -23 -34 0 -34 -1 -34 -44 0 -43 18 -65
41 -50 5 3 9 -5 9 -17 0 -21 1 -21 13 -6 12 17 40 19 62 5 6 -4 17 -3 24 1 7
4 34 6 61 3 44 -4 49 -3 52 19 1 12 10 24 18 26 13 4 13 3 0 -6 -13 -10 -13
-12 0 -21 10 -6 11 -10 3 -10 -7 0 -13 -4 -13 -10 0 -5 6 -10 13 -10 9 0 14
-13 15 -32 1 -32 0 -33 -43 -33 -24 0 -47 3 -51 7 -4 4 -17 5 -29 2 -18 -4
-25 0 -34 23 -8 19 -10 21 -7 6 3 -19 0 -23 -20 -23 -13 0 -24 4 -24 10 0 6
-10 5 -26 -2 -21 -10 -27 -9 -34 3 -6 8 -6 15 0 17 6 2 10 10 10 18 0 10 -5 9
-19 -5 -19 -19 -20 -37 -21 -285 0 -234 1 -265 15 -260 8 4 15 1 15 -4 0 -6
-8 -13 -18 -15 -15 -4 5 -7 71 -10 12 -1 27 2 32 5 6 3 43 9 83 13 63 6 72 5
72 -10 0 -9 5 -13 10 -10 6 4 8 11 5 16 -4 5 -3 9 2 10 4 0 30 1 56 2 34 2 52
8 58 20 12 21 29 22 29 2 0 -8 12 -17 28 -21 75 -16 68 -30 -9 -16 -29 6 -62
6 -73 2 -16 -6 -6 -10 39 -16 33 -5 69 -8 80 -8 11 0 23 -4 26 -9 11 -16 26 1
33 38 7 34 29 47 39 23 4 -10 8 -9 16 2 6 8 16 15 23 16 35 3 39 5 32 17 -6 9
-5 9 7 0 8 -7 25 -10 37 -6 19 5 22 1 22 -25 0 -33 -18 -52 -30 -32 -5 8 -9 5
-13 -9 -5 -19 -1 -21 51 -21 32 -1 77 -3 102 -5 25 -2 77 -5 116 -7 40 -2 70
-6 67 -10 -8 -14 33 -8 53 7 17 13 13 15 -51 16 -38 2 -88 3 -110 5 -22 1 -52
2 -66 3 -15 0 -29 7 -32 15 -4 11 16 14 106 14 120 0 151 -4 142 -19 -4 -5 1
-9 9 -9 14 0 21 18 17 42 0 5 37 8 84 8 47 0 85 4 85 8 0 13 -168 6 -184 -7
-11 -9 -40 -11 -98 -7 -46 3 -95 5 -110 6 -41 0 -34 15 20 41 26 12 51 29 55
36 4 7 15 13 23 13 23 0 64 46 64 73 0 13 8 32 18 43 9 10 16 29 14 42 -4 23
15 27 30 7 5 -6 8 -3 8 6 0 9 7 20 16 23 24 9 27 7 10 -10 -9 -8 -16 -23 -17
-32 0 -9 -2 -25 -4 -34 -3 -19 20 -25 30 -8 3 6 14 10 23 10 14 0 14 -2 3 -9
-9 -6 -2 -8 20 -6 19 2 37 4 41 4 4 1 10 10 13 21 6 20 47 70 58 70 3 0 1 -16
-3 -35 -4 -19 -7 -35 -6 -36 0 0 11 -2 23 -3 14 -2 25 6 34 23 7 14 12 28 11
31 0 3 8 7 19 7 10 1 19 -4 20 -10 0 -7 4 -2 9 10 7 16 16 21 37 18 15 -2 73
-6 128 -10 55 -4 136 -10 180 -13 l79 -7 12 -40 12 -40 1 46 1 47 -107 6 c-60
4 -169 13 -243 21 -74 8 -164 12 -200 9 -59 -4 -63 -3 -46 10 10 8 15 19 11
25 -3 6 0 9 8 5 8 -3 18 -1 22 5 3 6 17 11 30 11 17 0 25 -7 28 -23 4 -22 4
-22 6 2 1 19 5 23 26 19 17 -4 25 -1 25 8 0 8 3 14 8 14 4 -1 96 -9 206 -19
198 -18 222 -25 209 -58 -3 -7 -1 -13 5 -13 11 0 25 58 16 71 -3 5 -23 9 -45
9 -41 0 -305 25 -371 36 -40 6 -53 25 -37 55 9 17 5 25 -23 50 -28 27 -29 28
-5 14 16 -11 27 -13 27 -6 0 6 9 11 20 11 11 0 20 4 20 9 0 12 33 9 43 -4 6
-7 10 -6 13 1 3 6 12 20 20 30 14 18 15 18 9 -3 -4 -15 -2 -23 7 -24 13 -2 27
-4 87 -15 l34 -7 -5 47 c-3 27 -1 49 5 53 5 3 7 2 4 -4 -3 -5 0 -10 8 -10 8 0
15 4 15 9 0 4 -4 8 -10 8 -5 0 -10 9 -10 20 0 18 -3 19 -20 10 -16 -8 -20 -8
-20 4 0 8 6 16 13 19 6 2 8 8 4 13 -4 5 -12 3 -16 -4 -4 -8 -14 -14 -22 -15
-8 -2 -20 -6 -26 -10 -8 -5 -13 -4 -13 2 0 6 4 11 10 11 5 0 7 8 3 18 -5 14
-3 14 11 -3 14 -16 17 -16 12 -3 -3 9 0 18 6 20 8 3 7 10 -1 26 -14 26 -26 28
-35 6 -3 -8 -2 -12 4 -9 6 3 10 2 10 -3 0 -14 -38 -22 -44 -8 -2 6 -5 1 -5
-11 -1 -12 4 -25 9 -28 6 -3 10 -17 10 -30 0 -22 -2 -24 -24 -14 -17 8 -29 8
-44 0 -30 -16 -37 -13 -19 7 11 12 13 22 7 32 -16 25 -11 34 8 17 28 -26 42
-21 37 13 -2 17 1 30 6 30 5 0 9 7 9 15 0 8 -7 15 -16 15 -12 0 -15 -7 -12
-25 6 -29 2 -31 -18 -11 -9 10 -10 17 -4 21 6 4 8 11 4 16 -3 5 -11 6 -17 2
-7 -4 -6 0 2 10 15 19 14 20 -55 21 -29 1 -50 -2 -47 -6 2 -5 -1 -8 -6 -8 -6
0 -11 7 -11 15 0 21 -17 19 -24 -3 -6 -19 -96 -44 -115 -32 -13 7 62 86 100
106 16 8 29 11 29 7 0 -4 4 -3 9 2 5 6 12 45 16 87 7 77 7 77 -19 84 -23 5
-26 12 -26 46 0 35 4 41 30 51 17 6 30 15 30 20 0 4 -4 5 -10 2 -5 -3 -10 3
-10 15 0 13 10 25 28 33 15 6 33 18 41 25 7 7 28 12 45 10 27 -3 31 -7 30 -30
-1 -18 4 -28 13 -28 20 0 28 30 12 42 -11 7 -11 11 -1 15 6 2 12 11 12 19 0 8
10 15 23 15 16 1 18 2 5 6 -19 5 -25 43 -8 43 6 0 10 -6 10 -12 0 -10 2 -10 8
0 7 10 15 10 38 1 16 -6 38 -12 49 -14 11 -2 54 -13 95 -24 41 -11 108 -30
149 -41 40 -11 78 -17 84 -13 6 4 7 1 2 -7 -6 -10 -3 -12 13 -8 12 4 22 2 22
-4 0 -6 9 -8 20 -5 13 3 18 1 13 -6 -4 -6 2 -8 15 -5 18 5 22 2 22 -16 0 -12
9 -28 19 -35 11 -8 17 -20 14 -27 -2 -6 0 -15 6 -19 6 -3 11 -17 11 -30 0 -13
5 -27 10 -30 6 -3 10 -33 10 -65 0 -53 2 -59 23 -62 23 -3 37 -42 20 -59 -6
-6 -9 -1 -9 13 1 15 -8 27 -26 36 -16 7 -28 21 -28 32 0 21 -23 18 -48 -7 -20
-20 -12 -117 11 -121 12 -2 17 3 17 17 0 12 4 21 10 21 5 0 8 -12 7 -27 -2
-22 3 -29 20 -31 12 -2 23 -13 27 -25 3 -12 13 -31 23 -42 28 -31 40 -67 32
-95 -4 -14 -7 -19 -8 -13 -1 7 -11 12 -23 10 -15 -1 -22 3 -20 11 3 16 -20 11
-25 -5 -2 -6 4 -18 13 -27 9 -9 13 -20 9 -24 -3 -4 -12 1 -20 11 -10 13 -18
15 -36 8 -18 -7 -19 -10 -6 -10 9 -1 17 -8 17 -16 0 -17 -16 -20 -25 -5 -3 6
-11 10 -16 10 -6 0 -7 -4 -4 -10 3 -5 1 -10 -6 -10 -8 0 -8 -4 1 -15 14 -17
35 -21 25 -5 -3 6 1 10 11 10 12 0 15 -6 11 -21 -5 -19 30 -62 54 -65 5 -1 11
-3 14 -4 3 -1 10 -4 15 -5 6 -1 13 -4 18 -5 4 -1 11 -2 16 -1 4 1 14 -6 22
-16 13 -17 13 -17 14 1 0 14 3 16 14 7 9 -8 21 -8 40 -1 14 5 26 6 26 1 0 -5
-5 -11 -11 -13 -6 -2 -1 -14 11 -28 12 -14 20 -35 18 -50 -3 -28 -1 -27 -123
-16 -38 3 -99 8 -135 12 -36 3 -73 8 -82 10 -11 3 -18 0 -18 -9 0 -10 33 -16
138 -26 176 -16 192 -20 192 -40 0 -9 5 -22 12 -29 9 -9 -3 -12 -57 -14 -68
-2 -68 -2 -14 -5 l56 -4 17 -55 c10 -32 25 -58 34 -61 9 -3 35 -14 57 -24 l40
-19 3 26 c2 15 -2 30 -8 34 -9 6 -9 13 -1 29 7 12 9 26 6 32 -4 5 -1 16 5 24
10 12 10 18 0 30 -7 8 -10 16 -6 16 3 1 11 3 16 4 6 1 15 3 20 4 6 0 10 10 10
21 0 12 7 20 16 20 12 0 14 -3 6 -13 -7 -8 -7 -18 -2 -27 14 -21 12 -36 -2
-22 -15 15 -38 16 -38 2 0 -5 7 -10 15 -10 8 0 15 -4 15 -10 0 -5 8 -10 18
-10 12 -1 9 -5 -11 -16 -18 -10 -27 -21 -23 -30 4 -9 -3 -18 -17 -24 -17 -7
-18 -9 -4 -9 25 -1 31 -26 13 -53 -9 -12 -16 -39 -16 -60 0 -31 -3 -36 -17
-31 -10 4 -23 14 -30 22 -11 14 -12 14 -13 -2 0 -14 -4 -16 -20 -7 -12 6 -17
16 -13 26 4 11 0 15 -13 14 -34 -4 -46 0 -42 12 6 16 -13 37 -28 31 -17 -6
-44 25 -44 50 0 13 -9 30 -20 40 -26 22 -29 21 -23 -3 3 -11 9 -20 14 -20 5 0
9 -7 9 -16 0 -8 13 -28 29 -44 27 -28 28 -29 7 -33 -20 -4 -20 -4 2 -6 12 0
22 -5 22 -10 0 -5 21 -19 46 -31 34 -17 44 -27 41 -40 -3 -12 2 -20 14 -23 11
-3 19 -12 19 -20 0 -11 8 -15 27 -13 22 3 28 9 30 31 3 44 13 48 105 39 l83
-9 3 -45 c4 -52 12 -59 65 -58 33 0 38 3 34 19 -6 22 11 26 19 4 4 -9 18 -15
38 -14 21 1 24 3 11 6 -36 9 -36 19 1 21 20 2 43 10 51 18 9 8 18 12 21 9 4
-3 0 -10 -8 -15 -11 -7 -12 -10 -2 -10 7 0 11 -3 9 -7 -3 -5 19 -9 49 -9 30
-1 54 3 54 8 0 5 15 8 33 6 17 -2 31 -8 30 -14 -2 -8 10 -10 34 -7 26 4 33 2
28 -7 -6 -9 -29 -11 -86 -6 -49 4 -80 3 -84 -4 -3 -5 2 -10 12 -10 10 0 25 -5
33 -11 11 -7 5 -9 -22 -6 -21 3 -38 1 -38 -5 0 -5 -4 -6 -10 -3 -5 3 -10 1
-10 -4 0 -8 -7 -7 -19 1 -11 7 -17 16 -15 20 3 4 1 8 -5 8 -5 0 -12 -4 -16 -9
-7 -13 -45 -10 -45 4 0 5 -7 2 -15 -9 -8 -10 -19 -15 -26 -10 -23 14 -203 28
-195 15 3 -5 -5 -6 -18 -4 -13 3 -26 13 -29 24 -4 16 -13 18 -66 15 -34 -2
-61 0 -61 5 0 5 -9 9 -20 9 -26 0 -28 -40 -2 -41 9 0 34 -1 54 -3 21 -2 35 1
32 6 -7 12 18 10 36 -3 13 -9 13 -10 -2 -6 -9 3 -22 -1 -28 -9 -11 -12 -7 -14
22 -14 33 0 68 -24 68 -46 0 -5 -7 0 -16 11 -11 15 -27 20 -64 20 -28 0 -50 3
-50 8 0 12 -38 8 -43 -5 -4 -10 -6 -10 -6 0 -1 8 -20 12 -61 12 -33 0 -60 4
-60 10 0 6 -7 10 -16 10 -8 0 -13 -4 -10 -8 2 -4 1 -14 -5 -22 -7 -12 -9 -12
-9 4 0 12 -5 16 -14 13 -11 -4 -13 -1 -9 11 3 11 -1 8 -11 -6 -10 -12 -22 -20
-27 -17 -5 4 -9 1 -9 -4 0 -6 4 -11 8 -11 5 0 9 -7 9 -16 0 -14 -2 -14 -14 2
-7 10 -13 21 -13 26 0 4 -5 8 -11 8 -11 0 -39 25 -39 35 0 3 5 3 10 0 6 -3 10
-1 10 4 0 6 -14 11 -31 11 l-32 0 27 -21 c24 -19 38 -48 17 -35 -5 4 -11 2
-13 -3 -1 -5 -20 -1 -40 9 -34 16 -37 16 -41 1 -4 -14 -5 -14 -6 1 -1 22 -31
12 -32 -11 0 -10 -2 -11 -6 -3 -2 6 -16 12 -29 12 -13 0 -24 5 -24 10 0 15
-19 12 -37 -6 -15 -14 -17 -14 -25 0 -5 9 -14 16 -19 16 -6 0 -7 -5 -3 -12 5
-8 -2 -9 -24 -5 -20 4 -32 2 -32 -4 0 -6 -4 -8 -10 -4 -5 3 -6 13 -3 22 4 11
3 14 -5 9 -7 -4 -12 -2 -12 4 0 7 -19 11 -52 10 -29 -1 -55 -1 -58 0 -18 6
-60 10 -60 5 0 -3 11 -10 25 -15 41 -16 32 -39 -12 -32 -21 3 -48 6 -60 6 -13
1 -23 6 -23 13 0 7 -9 10 -22 8 -12 -3 -38 -6 -58 -7 -19 -1 -38 -7 -42 -12
-5 -7 -8 -6 -8 2 0 7 -4 11 -9 8 -5 -4 -21 -2 -35 4 -18 6 -26 6 -26 -1 0 -6
-5 -7 -12 -3 -8 5 -9 0 -6 -14 4 -12 2 -22 -3 -22 -5 0 -9 9 -9 19 0 19 -2 19
-33 6 -19 -8 -44 -11 -55 -8 -24 6 -29 19 -9 26 6 2 0 4 -15 3 -18 -1 -28 -7
-28 -16 -1 -12 -3 -11 -11 3 -12 21 -31 23 -23 2 5 -13 2 -14 -20 -5 -14 5
-26 7 -26 4 0 -4 -7 -1 -15 6 -12 10 -15 10 -15 -1 0 -11 -2 -11 -10 1 -8 13
-10 13 -10 -1 0 -12 -7 -15 -25 -11 -16 3 -25 0 -25 -9 0 -7 -3 -10 -6 -7 -11
12 17 48 36 48 11 0 20 5 20 11 0 7 -7 8 -17 4 -10 -4 -30 -10 -45 -13 -15 -2
-26 -8 -23 -12 3 -5 0 -12 -6 -16 -8 -4 -9 -3 -5 4 5 8 -1 12 -16 12 -13 0
-30 6 -37 13 -11 10 -12 7 -7 -13 3 -14 3 -19 0 -12 -7 16 -21 16 -27 0 -2 -7
-2 -3 0 10 4 24 -10 29 -28 9 -7 -7 -31 -11 -65 -9 -31 2 -54 0 -54 -6 0 -12
-33 -10 -42 3 -5 6 -8 4 -8 -4 0 -11 -4 -9 -14 5 -12 16 -18 17 -35 7 -15 -10
-22 -9 -31 2 -7 9 -21 13 -35 9 -13 -3 -28 1 -38 11 -19 18 -37 12 -37 -13 0
-14 -2 -14 -9 -3 -11 17 -98 18 -114 2 -6 -6 -20 -10 -32 -10 -16 1 -17 2 -2
6 31 8 18 29 -20 31 -20 2 -40 5 -44 8 -4 2 -11 -1 -14 -7 -4 -6 -17 -8 -30
-5 -15 4 -25 1 -29 -9 -4 -11 2 -15 19 -15 14 0 25 -5 25 -11 0 -7 -7 -8 -18
-4 -9 4 -36 10 -59 12 -27 4 -43 11 -43 19 0 8 -7 14 -15 14 -8 0 -15 -7 -15
-15 0 -11 -6 -12 -22 -6 -13 4 -29 6 -37 3 -10 -3 -12 0 -8 12 4 9 3 16 -2 16
-10 0 -21 -35 -21 -67 0 -13 5 -23 11 -23 5 0 7 5 3 12 -4 7 -3 8 4 4 17 -10
15 -26 -3 -26 -12 0 -15 -18 -15 -104 l0 -104 128 -6 c199 -10 909 -26 992
-22 41 2 230 5 420 7 475 4 938 15 1170 28 351 20 374 22 381 33 5 7 8 7 10
-1 3 -8 24 -9 67 -5 47 5 62 11 63 23 0 12 3 11 9 -4 l9 -20 1 20 c0 18 2 18
10 3 8 -12 20 -15 57 -11 27 3 51 10 55 16 6 9 8 9 8 1 0 -12 38 -10 150 7
132 20 120 10 120 100 0 46 -4 79 -10 79 -5 0 -10 -8 -10 -19 0 -14 -6 -18
-27 -15 -15 1 -31 -3 -35 -9 -6 -9 -11 -8 -18 3 -12 18 -14 8 -10 -62 2 -47
-14 -67 -23 -30 -4 16 -5 16 -6 0 0 -10 -6 -18 -12 -18 -7 0 -10 18 -7 50 1
28 0 50 -4 50 -5 0 -8 -23 -8 -52 0 -73 -8 -56 -11 23 -1 48 -6 66 -16 66 -18
0 -27 -38 -20 -86 3 -28 1 -38 -9 -38 -10 0 -14 15 -16 46 l-1 46 -7 -50 -7
-50 -2 55 c-2 30 -5 49 -8 42 -2 -6 -13 -12 -24 -12 -15 0 -19 -7 -19 -39 0
-34 -3 -38 -20 -34 -11 3 -20 13 -21 22 0 12 -2 11 -9 -4 -6 -16 -9 -10 -12
25 l-5 45 -1 -42 c-1 -24 -6 -43 -12 -43 -13 0 -6 93 7 97 7 3 9 18 6 40 -5
28 -3 34 7 28 7 -4 27 -8 44 -9 17 -1 37 -5 44 -9 6 -5 16 -5 22 -2 5 3 19 1
30 -5 16 -8 20 -8 20 4 0 8 -4 18 -10 21 -5 3 -10 14 -10 23 1 15 3 14 15 -3
8 -11 24 -31 35 -43 18 -21 20 -22 21 -5 0 14 2 15 7 3 8 -17 82 -27 82 -10 0
5 0 12 0 15 -1 13 25 32 31 23 3 -5 26 -10 50 -11 36 -2 43 -5 41 -20 -2 -9 2
-17 8 -17 5 0 10 9 10 20 0 13 5 18 15 14 10 -4 13 -2 10 8 -5 11 2 14 27 12
43 -3 79 6 72 17 -3 5 2 9 10 9 12 0 14 -5 6 -25 -9 -23 -7 -25 18 -25 19 0
23 -3 13 -9 -11 -7 -10 -10 5 -14 16 -4 16 -5 -3 -6 -13 0 -23 -5 -23 -10 0
-8 338 -28 405 -24 17 1 24 -1 18 -3 -7 -3 -13 -10 -13 -16 0 -6 8 -4 18 5 14
13 44 15 197 12 99 -2 200 -4 224 -4 25 0 48 -6 52 -13 7 -11 9 -11 9 0 0 7 5
10 11 6 6 -3 15 0 20 7 7 11 13 9 29 -11 18 -23 20 -23 21 -5 0 11 3 14 6 8 2
-7 9 -13 14 -13 6 0 8 4 5 9 -3 5 32 9 78 10 77 1 85 0 91 -19 5 -15 15 -20
45 -20 34 0 38 2 36 25 0 16 -6 23 -13 20 -8 -2 -13 4 -13 16 0 11 6 22 14 25
8 3 12 15 10 27 -5 22 -4 22 7 -1 7 -12 16 -22 21 -22 13 0 9 -27 -7 -44 -28
-28 -8 -44 63 -50 37 -3 99 -10 137 -15 39 -5 82 -7 98 -4 15 3 33 0 41 -6 8
-7 36 -11 63 -10 66 2 338 -9 391 -17 l42 -6 0 436 c-1 324 -4 436 -12 436 -9
0 -9 3 0 12 20 20 15 40 -8 33 -12 -4 -20 -2 -20 5 0 6 5 8 12 4 8 -5 9 -2 5
10 -5 13 -3 17 6 13 10 -4 14 4 14 24 0 16 -4 29 -9 29 -5 0 -6 5 -3 10 3 6 1
10 -6 10 -8 0 -6 6 4 18 22 24 21 59 -1 71 -23 12 -55 -19 -42 -40 11 -16 3
-30 -13 -23 -7 2 -13 16 -14 30 0 14 -6 31 -11 36 -8 8 -9 4 -5 -10 3 -12 3
-32 -1 -45 -5 -20 -11 -23 -31 -19 -14 2 -22 8 -19 13 3 5 0 9 -6 9 -6 0 -8 5
-4 12 5 7 3 8 -5 4 -7 -5 -10 -14 -7 -22 3 -8 -1 -14 -8 -14 -10 0 -13 9 -9
31 4 26 2 31 -11 26 -9 -4 -16 -2 -16 3 0 13 -33 13 -47 -1 -14 -14 -15 41 -1
58 14 17 2 43 -19 43 -14 0 -15 -2 -4 -9 8 -5 9 -11 3 -15 -6 -3 -14 -1 -19 6
-20 32 -33 61 -28 66 3 3 5 0 5 -7 0 -7 5 -9 12 -5 6 4 8 3 4 -4 -3 -6 -3 -13
2 -15 4 -3 12 6 19 19 6 13 7 22 2 18 -5 -3 -9 5 -9 18 0 16 -3 19 -8 10 -7
-10 -13 -10 -34 0 -13 8 -23 19 -20 26 6 18 -4 15 -34 -13 -33 -31 -44 -31
-45 -2 l0 22 -9 -22 c-7 -16 -14 -21 -26 -16 -14 5 -16 3 -10 -13 11 -28 14
-74 4 -74 -5 0 -5 -8 1 -17 16 -31 21 -101 8 -107 -9 -3 -9 -5 1 -5 19 -1 14
-17 -7 -18 -11 -1 -23 8 -30 23 -6 13 -15 24 -20 24 -11 0 -21 -36 -13 -45 3
-3 7 -18 9 -33 l2 -27 -10 28 c-12 31 -21 33 -44 11 -12 -13 -13 -19 -4 -30 9
-12 9 -13 -4 -9 -8 4 -18 2 -22 -4 -4 -7 8 -11 34 -11 30 0 43 -5 51 -19 5
-11 6 -22 2 -25 -13 -8 -35 11 -28 23 5 7 -3 11 -21 11 l-28 -1 30 -24 c25
-22 28 -27 15 -36 -12 -9 -10 -10 8 -6 18 4 21 3 12 -8 -8 -10 -7 -15 2 -19
10 -5 10 -7 1 -12 -7 -3 -13 -12 -13 -20 0 -11 -17 -14 -73 -14 -41 0 -77 -3
-81 -7 -4 -4 -26 -6 -49 -5 -39 2 -41 1 -23 -12 15 -12 38 -14 110 -10 50 3
95 9 101 12 16 12 50 7 48 -6 -2 -7 4 -12 13 -12 11 0 14 -5 10 -16 -5 -13 -2
-15 14 -11 11 3 17 1 14 -4 -3 -5 1 -16 9 -23 11 -11 17 -12 26 -3 8 8 11 7
11 -6 0 -11 -8 -17 -22 -17 -21 -1 -22 -2 -5 -14 9 -7 17 -17 17 -22 0 -5 9
-15 20 -22 26 -16 25 -30 -2 -35 -17 -3 -15 -5 9 -6 32 -1 57 -21 35 -29 -7
-2 -10 -8 -6 -13 9 -15 -13 -10 -26 6 -7 8 -19 15 -26 15 -8 0 -14 5 -14 10 0
6 -7 10 -15 10 -21 0 -8 -25 21 -40 18 -10 21 -16 12 -22 -11 -7 28 -13 55 -9
16 2 6 -19 -14 -30 -17 -9 -23 -8 -30 2 -5 9 -9 10 -9 3 0 -7 -7 -14 -15 -18
-29 -11 -50 42 -55 144 l-5 95 -57 3 -57 3 4 -126 3 -125 -79 0 -79 0 0 35 c0
19 -5 35 -11 35 -7 0 -8 7 -4 17 11 25 13 113 3 107 -4 -3 -9 -17 -9 -32 -2
-24 -2 -24 -6 -4 -3 15 -11 22 -26 21 -12 0 -16 -3 -9 -6 17 -7 15 -33 -4 -33
-8 0 -13 4 -10 9 3 4 -3 16 -13 25 -15 14 -24 15 -40 7 -23 -13 -34 -2 -20 19
13 22 11 40 -5 40 -7 0 -13 -10 -13 -22 -1 -57 -2 -61 -18 -48 -16 13 -16 13
-19 -39 -2 -37 -27 -61 -63 -61 -17 0 -22 -5 -20 -21 2 -18 -4 -22 -48 -25
-63 -6 -71 -14 -14 -15 l44 -1 -43 -11 c-23 -5 -45 -8 -48 -5 -2 3 -7 28 -11
57 -5 45 -4 51 13 51 18 0 19 7 14 112 -3 67 -10 113 -16 115 -6 2 -9 15 -6
28 2 14 0 25 -7 25 -6 0 -11 40 -14 113 l-3 112 -2 -127 -2 -128 -35 0 c-19 0
-35 -4 -35 -9 0 -4 -12 -6 -26 -3 -21 4 -25 9 -19 29 4 17 2 22 -5 18 -6 -4
-10 -17 -8 -30 1 -12 -3 -30 -11 -39 -15 -18 -8 -21 19 -6 12 6 21 6 25 1 3
-5 27 -8 53 -5 33 3 42 1 32 -6 -8 -5 -33 -10 -55 -10 -68 0 -114 -11 -118
-29 -4 -14 -5 -14 -6 2 -1 15 -7 19 -27 16 -4 0 -10 4 -14 10 -8 14 -88 23
-95 10 -4 -5 -1 -17 4 -26 10 -17 10 -17 11 0 0 28 45 19 46 -9 1 -12 4 -26 8
-32 4 -6 -2 -10 -14 -9 -10 1 -22 8 -25 16 -5 14 -7 14 -15 1 -13 -20 -12 -91
1 -110 8 -12 9 -10 4 9 -7 22 -5 23 21 17 16 -3 83 -15 149 -27 113 -19 157
-35 128 -46 -15 -6 -18 -63 -3 -63 6 0 10 -7 10 -15 0 -11 -12 -15 -42 -16
l-43 -2 40 -6 c34 -5 40 -10 43 -33 2 -19 -2 -28 -15 -31 -17 -4 -17 -5 0 -6
21 -1 23 -21 2 -21 -11 0 -15 -12 -15 -47 0 -35 -3 -44 -10 -33 -9 13 -10 13
-11 0 -1 -8 -1 -21 0 -27 1 -7 -2 -13 -7 -13 -13 0 -22 36 -22 88 0 24 -5 42
-11 42 -6 0 -8 -7 -5 -16 3 -9 6 -40 6 -69 0 -43 4 -54 18 -58 12 -4 11 -5 -6
-6 -13 -1 -25 6 -28 17 -13 38 -28 62 -41 62 -8 0 -13 13 -13 35 0 47 -18 45
-22 -3 -2 -20 -7 -37 -13 -37 -25 -1 -37 -18 -31 -46 5 -26 3 -29 -22 -30 -15
0 -21 -3 -14 -6 6 -2 12 -11 12 -18 0 -17 35 -26 50 -11 8 8 13 7 19 -3 7 -11
23 -13 70 -8 50 6 61 4 61 -8 0 -13 -31 -15 -210 -15 -115 0 -210 3 -210 8 0
4 39 5 86 3 54 -2 90 1 97 8 8 8 6 11 -6 11 -10 0 -17 8 -17 20 0 18 -7 20
-84 20 -65 0 -85 3 -90 15 -3 8 -14 15 -24 15 -16 0 -19 9 -21 57 -2 47 0 55
12 45 17 -15 27 -6 27 25 0 15 -6 23 -16 23 -14 0 -14 -2 -3 -16 11 -14 10
-16 -6 -14 -46 5 -64 0 -59 -15 5 -12 10 -13 20 -4 12 10 14 2 14 -44 0 -35
-5 -57 -12 -60 -10 -4 -10 -6 0 -6 6 -1 12 -6 12 -11 0 -6 -17 -10 -39 -8 -34
1 -38 4 -31 19 11 20 15 296 5 322 -4 10 -20 24 -36 32 -32 17 -139 20 -139 4
0 -7 16 -8 46 -3 l47 7 -22 -22 c-23 -23 -24 -30 -21 -182 1 -90 -1 -110 -18
-138 l-20 -32 0 40 c0 23 3 41 9 41 5 0 9 11 9 25 0 25 -14 33 -25 15 -3 -5 0
-10 7 -10 10 0 10 -2 1 -8 -7 -4 -13 -24 -15 -45 -1 -23 -7 -37 -15 -37 -8 0
-16 -7 -19 -15 -4 -8 -14 -15 -23 -15 -14 0 -14 2 -1 10 13 9 13 10 0 11 -8 1
-18 1 -22 0 -11 -1 -9 133 2 189 5 29 5 47 -2 51 -6 4 -5 9 3 12 10 4 10 6 2
6 -7 1 -13 7 -13 15 0 8 6 17 13 19 9 4 9 6 0 6 -9 1 -8 8 3 29 12 24 12 28
-1 38 -8 6 -15 21 -15 33 0 18 6 21 45 21 36 0 43 3 38 16 -4 10 -13 13 -24
10 -61 -19 -59 -20 -59 9 0 19 4 26 14 22 11 -4 13 7 8 61 -3 37 -9 70 -15 73
-5 4 -1 9 9 12 17 4 17 5 1 6 -15 1 -18 9 -16 50 2 30 7 48 12 44 6 -3 7 -1 3
5 -9 15 -43 15 -52 0 -5 -8 -2 -9 9 -5 10 3 17 2 17 -2 0 -18 -30 -20 -39 -3
-9 14 -10 14 -11 2 0 -17 -60 -45 -60 -29 0 6 -5 7 -10 4 -6 -4 -8 -11 -5 -16
4 -5 2 -9 -4 -9 -5 0 -12 9 -16 19 -3 12 -12 18 -20 15 -8 -3 -11 -12 -8 -20
3 -8 -1 -14 -11 -14 -10 0 -25 -20 -38 -50 -12 -27 -25 -50 -30 -50 -4 0 -8
20 -8 44 0 46 -13 68 -24 40 -3 -9 -6 -31 -6 -50 0 -35 -12 -42 -40 -24 -11 7
-14 26 -13 81 1 40 -1 77 -4 82 -10 17 -22 -24 -22 -80 -1 -57 -4 -61 -28 -38
-8 8 -19 12 -25 9 -7 -5 -9 3 -5 22 3 16 4 23 1 17 -11 -24 -26 -13 -20 13 5
18 3 24 -5 18 -8 -4 -9 -3 -5 4 4 7 16 12 26 12 20 0 36 17 26 28 -4 3 -16 1
-26 -6 -16 -10 -18 -9 -14 3 5 11 2 13 -10 9 -21 -8 -21 12 0 24 20 11 20 21
-2 36 -15 11 -15 13 0 13 9 0 16 -4 16 -9 0 -4 12 -8 28 -8 19 0 23 3 13 9
-11 7 -11 9 0 14 8 2 3 4 -11 4 -14 0 -29 1 -35 2 -5 2 -23 3 -38 2 -24 -1
-27 -4 -22 -21 5 -15 3 -18 -9 -14 -9 3 -16 10 -16 15 0 5 -17 9 -37 10 -36 1
-36 2 20 17 32 9 57 22 57 29 0 15 -16 18 -24 4 -12 -19 -43 -18 -55 1 -7 12
-8 17 -2 14 7 -4 8 -1 5 8 -11 28 -26 17 -22 -14 3 -20 0 -30 -9 -30 -7 0 -13
-6 -14 -12 0 -7 -5 0 -9 16 -5 16 -6 34 -3 39 4 7 -1 8 -13 3 -31 -12 -36 -12
-42 3 -3 8 0 11 7 7 7 -5 11 1 11 13 0 22 14 28 25 11 12 -20 35 2 29 29 -4
20 -3 23 5 11 6 -8 11 -11 11 -6 0 5 7 3 15 -4 8 -7 13 -16 10 -20 -3 -5 -1
-11 4 -14 5 -3 11 19 13 49 1 30 0 55 -4 55 -5 0 -8 6 -8 13 0 8 -11 20 -25
27 -29 15 -34 40 -7 35 19 -3 43 32 35 52 -3 7 -12 13 -20 13 -10 0 -12 6 -8
20 4 11 2 20 -4 20 -6 0 -11 -7 -11 -15 0 -8 -4 -15 -9 -15 -11 0 -9 19 3 38
4 7 6 15 3 18 -8 8 -37 -8 -37 -21 0 -12 -31 -45 -43 -45 -4 0 -7 13 -7 30 0
22 4 28 15 24 9 -4 15 0 15 9 0 8 7 20 15 27 13 10 13 14 0 27 -17 17 -35 9
-35 -15 0 -14 -2 -14 -9 -3 -5 8 -18 12 -30 8 -14 -3 -21 0 -21 9 0 8 -4 14
-10 14 -5 0 -10 -4 -10 -10 0 -5 -7 -10 -16 -10 -8 0 -12 -5 -9 -10 3 -6 -5
-14 -19 -19 -27 -11 -40 -39 -30 -65 6 -14 2 -16 -22 -10 l-28 7 24 -31 c14
-17 30 -29 37 -27 8 3 9 -5 2 -27 -7 -24 -6 -29 3 -20 17 17 33 15 18 -3 -18
-22 -40 -18 -40 6 0 15 -5 19 -15 15 -8 -3 -15 -1 -15 5 0 6 -4 7 -10 4 -5 -3
-10 2 -10 11 0 10 -7 26 -17 36 -9 11 -11 18 -5 18 17 0 15 21 -4 35 -13 9
-14 16 -5 33 9 17 8 23 -6 30 -10 5 -24 7 -30 5 -9 -3 -13 6 -13 27 0 24 4 31
15 26 8 -3 16 0 16 7 5 43 3 84 -6 97 -9 13 -8 13 10 0 11 -8 23 -19 27 -25
12 -17 22 27 10 46 -7 10 -12 27 -13 36 0 11 -3 13 -6 6 -7 -18 -23 -16 -39 5
-11 14 -15 15 -23 3 -5 -8 -7 -20 -4 -28 3 -7 0 -13 -7 -13 -7 0 -10 -7 -7
-15 7 -17 -9 -30 -18 -15 -11 18 -24 11 -27 -17 -4 -35 -28 -43 -28 -9 0 28
-17 35 -26 11 -4 -9 -7 -30 -8 -48 -2 -26 -6 -31 -22 -29 -10 2 -23 8 -29 13
-16 16 -25 10 -25 -20 0 -25 -3 -28 -22 -23 -12 3 -17 7 -10 10 17 5 15 22 -3
22 -8 0 -15 -7 -15 -15 0 -8 -8 -15 -17 -15 -15 0 -14 -2 3 -14 20 -15 18 -16
-25 -28 -11 -3 -11 -7 2 -20 9 -8 14 -18 11 -21 -11 -11 7 -28 19 -19 7 5 22
12 35 15 18 4 22 1 22 -20 0 -38 -22 -54 -52 -39 -29 15 -58 1 -59 -30 0 -18
-1 -18 -9 1 -8 19 -9 19 -9 1 -1 -13 -5 -16 -13 -9 -7 5 -23 10 -35 11 -19 1
-23 -4 -23 -29 0 -28 1 -29 16 -15 8 9 17 16 20 16 7 0 0 -55 -9 -67 -11 -15
-31 -18 -22 -3 10 16 -41 12 -54 -4 -9 -11 -8 -18 4 -30 9 -9 20 -14 25 -11 5
3 12 -5 16 -17 4 -13 11 -26 17 -29 12 -9 -23 -69 -40 -69 -16 0 -17 12 -1 28
9 9 7 12 -10 12 -12 0 -22 4 -22 10 0 5 -6 7 -14 4 -7 -3 -20 6 -29 19 -9 15
-35 30 -62 38 -57 17 -80 39 -41 39 23 0 27 4 24 23 -2 12 -10 23 -18 23 -8 1
-23 2 -34 3 -11 1 -16 6 -13 15 4 11 1 13 -10 9 -11 -4 -14 -3 -9 6 11 18 -24
54 -39 41 -18 -15 -40 14 -28 35 9 15 11 15 22 1 17 -20 45 -21 38 -2 -3 7 0
19 6 25 8 8 7 11 -3 11 -7 0 -10 3 -7 7 4 3 -7 16 -23 28 -16 12 -27 25 -23
28 3 4 -3 7 -15 7 -11 0 -24 5 -27 10 -3 6 -16 8 -28 5 -13 -4 -31 1 -42 10
l-20 16 20 -5 c21 -6 53 8 39 16 -5 3 -21 8 -36 12 -16 3 -27 11 -25 17 3 18
-20 21 -27 4 -3 -9 -2 -14 2 -11 4 2 9 -4 9 -16 2 -19 1 -19 -18 3 -11 13 -18
31 -16 41 3 10 1 21 -4 24 -5 3 -9 23 -9 44 0 28 -5 42 -19 49 -10 6 -21 7
-25 4 -3 -3 -6 -1 -6 5 0 14 76 16 85 3 3 -5 0 -21 -7 -36 -9 -20 -9 -28 2
-38 10 -10 12 -8 7 6 -4 11 -1 25 8 33 30 30 18 51 -37 69 -29 10 -63 27 -75
38 -21 19 -23 19 -23 3 0 -11 -5 -16 -14 -13 -15 6 -16 -9 -3 -30 5 -8 3 -13
-7 -13 -9 0 -16 8 -17 18 0 9 -2 44 -4 77 -1 33 -3 63 -4 66 -1 3 -13 11 -27
17 -20 10 -24 10 -19 0 4 -7 0 -5 -9 5 -9 12 -21 17 -34 13 -16 -6 -19 -3 -14
19 3 16 11 25 23 25 23 0 26 32 4 50 -8 7 -15 17 -15 22 0 6 7 8 15 4 9 -3 15
0 15 9 0 8 9 19 20 25 36 19 142 49 156 43 8 -3 14 0 14 6 0 16 -47 13 -127
-8 -69 -18 -103 -15 -89 8 4 6 14 11 23 11 13 0 13 3 3 15 -7 8 -16 15 -21 15
-5 0 -6 -7 -3 -15 4 -8 1 -15 -5 -15 -6 0 -11 7 -11 15 0 22 -27 19 -40 -4z
m-20 -378 c0 -4 10 -14 22 -22 20 -12 20 -14 4 -23 -10 -5 -15 -17 -12 -26 4
-13 0 -17 -17 -17 -14 0 -24 6 -24 16 -1 9 5 16 14 15 27 -2 24 19 -7 51 -19
19 -28 37 -24 47 5 14 9 12 25 -8 10 -13 19 -28 19 -33z m-940 -8 c-19 -7 -46
-14 -60 -14 l-25 0 25 14 c14 8 41 14 60 14 l35 -1 -35 -13z m-216 -76 c-8 -8
-14 -22 -14 -30 0 -12 -2 -11 -10 1 -11 18 -13 73 -3 84 4 4 15 -3 24 -16 16
-20 16 -25 3 -39z m81 1 c-3 -5 9 -7 25 -6 17 1 30 -1 30 -6 0 -4 -9 -8 -19
-8 -11 0 -23 -4 -26 -10 -12 -19 -23 -10 -33 31 -10 39 -10 40 9 23 10 -9 16
-20 14 -24z m1315 8 c28 -3 52 -45 43 -76 -2 -11 0 -23 6 -26 16 -10 13 -29
-3 -23 -8 3 -27 -4 -42 -15 l-27 -22 -18 23 c-11 13 -19 19 -19 15 0 -5 -4 -4
-8 2 -9 14 -72 35 -83 28 -5 -3 -9 -1 -9 4 0 4 -25 8 -55 8 -57 0 -69 -12 -40
-36 8 -7 15 -18 15 -25 0 -6 10 -17 23 -23 12 -6 16 -11 10 -11 -18 -1 -86 72
-77 82 3 2 -1 16 -7 31 -10 22 -14 24 -21 12 -5 -9 -5 -24 1 -35 9 -15 7 -20
-9 -24 -11 -3 -18 -1 -14 4 3 5 0 9 -5 9 -6 0 -11 9 -11 20 0 11 6 20 14 20 7
0 16 9 19 20 5 21 26 23 39 6 4 -6 12 -5 21 2 11 9 22 10 41 2 15 -5 35 -10
44 -10 16 1 15 1 0 11 -10 5 -18 17 -18 26 0 13 12 15 83 10 45 -4 93 -8 107
-9z m-1605 -18 c-10 -11 -28 -19 -39 -19 -19 2 -19 2 2 6 13 3 26 11 29 19 3
8 10 14 16 14 5 0 2 -9 -8 -20z m385 0 c0 -5 -2 -10 -4 -10 -3 0 -8 5 -11 10
-3 6 -1 10 4 10 6 0 11 -4 11 -10z m20 -48 c0 -15 -2 -15 -10 -2 -13 20 -13
33 0 25 6 -3 10 -14 10 -23z m-268 -24 c-15 -15 -26 -4 -18 18 5 13 9 15 18 6
9 -9 9 -15 0 -24z m-44 -8 c15 -1 15 -2 -1 -11 -17 -10 -18 -44 -2 -69 11 -17
-10 -11 -26 9 -11 12 -13 23 -8 34 7 11 5 15 -8 12 -10 -1 -17 -8 -16 -13 2
-6 -4 -9 -12 -5 -25 9 4 36 32 30 20 -4 23 -1 18 17 -2 11 -2 15 1 9 3 -7 13
-13 22 -13z m399 -12 c-3 -7 -5 -2 -5 12 0 14 2 19 5 13 2 -7 2 -19 0 -25z
m-497 2 c7 -2 -33 -18 -47 -19 -7 -1 -13 5 -13 13 0 13 27 15 60 6z m470 -14
c0 -3 -4 -8 -10 -11 -5 -3 -10 -1 -10 4 0 6 5 11 10 11 6 0 10 -2 10 -4z m84
-22 c3 -8 2 -12 -4 -9 -6 3 -10 10 -10 16 0 14 7 11 14 -7z m45 -24 c0 -10 -3
-8 -9 5 -12 27 -12 43 0 25 5 -8 9 -22 9 -30z m891 36 c0 -2 -7 -7 -16 -10 -8
-3 -12 -2 -9 4 6 10 25 14 25 6z m1020 -31 c13 8 24 -41 14 -62 -4 -10 -6 -22
-5 -26 1 -5 -4 -7 -11 -5 -7 3 -14 10 -14 16 -1 7 -2 16 -3 21 0 5 -11 11 -23
14 l-23 6 23 21 c12 11 23 26 23 33 1 7 3 4 6 -6 2 -9 9 -15 13 -12z m-2493
-10 c0 -8 -4 -15 -9 -15 -10 0 -11 14 -1 23 9 10 10 9 10 -8z m304 8 c1 -5 3
-17 4 -28 2 -11 12 -37 23 -58 27 -51 23 -150 -7 -176 -21 -19 -28 -41 -12
-41 5 0 12 10 15 23 7 21 7 21 15 2 11 -27 -7 -75 -27 -74 -11 0 -12 2 -4 6
22 9 13 20 -12 16 -17 -4 -27 1 -35 15 -18 33 0 199 23 214 8 5 7 8 -1 8 -18
0 -16 29 1 36 14 5 14 33 1 54 -3 6 -1 10 4 10 6 0 12 -3 12 -7z m85 -10 c9
-10 12 -19 6 -21 -5 -1 -8 -13 -6 -25 3 -15 1 -14 -7 6 -6 15 -17 27 -24 27
-7 0 -15 7 -19 15 -8 21 28 20 50 -2z m-336 -18 c14 -19 14 -19 -2 -6 -10 7
-18 18 -18 24 0 6 1 8 3 6 1 -2 9 -13 17 -24z m554 -10 c-5 -11 -11 -12 -25
-4 -25 13 -24 14 6 17 18 1 23 -2 19 -13z m-574 -1 c0 -8 -19 -13 -24 -6 -3 5
1 9 9 9 8 0 15 -2 15 -3z m320 -20 c0 -20 -7 -17 -20 6 -9 16 -8 18 5 14 8 -4
15 -12 15 -20z m-234 -55 c7 -50 -6 -45 -24 9 -13 37 -5 75 9 50 5 -8 11 -35
15 -59z m21 -21 c-2 -18 -4 -6 -4 27 0 33 2 48 4 33 2 -15 2 -42 0 -60z m2441
55 c16 -16 16 -16 -1 -10 -10 4 -23 7 -28 7 -6 0 -7 5 -4 10 9 14 14 13 33 -7z
m-2124 -8 c-4 -8 -11 -12 -16 -9 -6 4 -5 10 3 15 19 12 19 11 13 -6z m1310
-37 c9 -37 7 -43 -9 -22 -16 21 -19 44 -6 44 5 0 11 -10 15 -22z m-1308 -15
c-3 -27 -70 -106 -81 -95 -10 10 -4 67 9 85 7 9 21 17 30 17 9 0 16 5 16 10 0
6 7 10 15 10 10 0 14 -8 11 -27z m58 2 c3 -9 0 -15 -9 -15 -9 0 -12 6 -9 15 4
8 7 15 9 15 2 0 5 -7 9 -15z m2291 5 c3 -5 4 -14 0 -20 -8 -13 -35 -1 -35 16
0 16 26 19 35 4z m-2199 -27 c-7 -7 -26 7 -26 19 0 6 6 6 15 -2 9 -7 13 -15
11 -17z m1894 11 c0 -8 -4 -12 -10 -9 -5 3 -10 10 -10 16 0 5 5 9 10 9 6 0 10
-7 10 -16z m-2500 -14 c0 -5 -7 -10 -15 -10 -7 0 -19 -8 -24 -17 -6 -10 -11
-13 -11 -6 0 14 27 43 41 43 5 0 9 -4 9 -10z m531 -12 c0 -10 2 -10 6 0 2 6
14 12 25 12 16 0 18 -3 9 -14 -9 -11 -8 -15 6 -20 10 -4 19 -2 21 3 5 14 22
14 22 1 0 -6 -12 -15 -26 -21 -15 -5 -25 -12 -22 -15 3 -2 17 0 31 5 17 7 28
7 32 1 4 -6 -3 -10 -14 -10 -11 0 -29 -10 -41 -22 -20 -22 -38 -29 -75 -28
-11 0 -42 0 -69 0 l-48 0 18 28 c41 64 69 91 97 91 15 1 27 -5 28 -11z m-647
-18 c-22 -9 -29 -6 -20 9 4 6 14 7 23 4 15 -6 14 -7 -3 -13z m2516 -1 c0 -5
-7 -9 -15 -9 -15 0 -20 12 -9 23 8 8 24 -1 24 -14z m88 -18 c-2 -22 0 -37 4
-35 5 3 8 -3 9 -13 1 -10 3 -35 4 -57 2 -21 -1 -50 -6 -64 l-10 -26 -13 26
c-8 15 -13 46 -12 70 2 24 -2 46 -8 51 -8 5 -6 10 4 17 12 7 12 12 2 22 -16
16 -15 28 3 28 8 0 15 5 15 10 0 6 3 10 6 10 3 0 4 -18 2 -39z m92 24 c14 -16
10 -18 -14 -9 -9 3 -16 10 -16 15 0 14 16 11 30 -6z m165 5 c3 -5 1 -10 -4
-10 -6 0 -11 5 -11 10 0 6 2 10 4 10 3 0 8 -4 11 -10z m-429 -13 c9 3 14 -1
14 -11 0 -9 6 -19 14 -22 10 -4 12 -14 6 -38 -12 -55 -18 -57 -54 -22 -27 27
-32 39 -28 65 2 17 8 28 13 25 5 -3 9 1 10 8 0 9 2 10 5 1 3 -7 12 -9 20 -6z
m532 -56 c3 -8 0 -11 -7 -7 -6 4 -11 3 -11 -2 0 -16 -32 -23 -46 -11 -20 16
-2 35 32 34 15 0 29 -6 32 -14z m-2198 -6 c0 -9 -6 -12 -16 -8 -13 5 -13 7 -2
14 17 11 18 11 18 -6z m1943 -12 c-4 -11 -2 -14 5 -9 8 5 10 2 6 -8 -11 -28
-34 -18 -34 14 0 21 4 28 14 24 9 -3 12 -12 9 -21z m-198 -30 c-4 -19 -1 -23
17 -23 15 0 19 -3 12 -10 -16 -16 -44 0 -44 25 0 13 -3 32 -7 42 -6 16 -5 16
11 4 11 -10 15 -22 11 -38z m308 3 c-2 -3 -3 -13 -3 -22 0 -23 -25 -11 -25 12
-1 10 -5 26 -10 34 -8 12 -5 12 15 -1 14 -9 24 -19 23 -23z m-65 0 c-7 -8 -15
-12 -17 -11 -5 6 10 25 20 25 5 0 4 -6 -3 -14z m-2172 -7 c3 -6 15 -9 25 -6
18 5 22 -12 7 -23 -4 -3 -2 -22 4 -43 9 -29 16 -36 34 -35 19 2 22 7 18 28
l-4 25 10 -24 c14 -32 6 -51 -20 -51 -11 0 -20 -4 -20 -10 0 -5 -8 -10 -17
-10 -15 0 -16 -2 -3 -10 12 -8 9 -10 -12 -10 -17 0 -31 7 -38 21 -7 11 -20 29
-31 40 -10 10 -19 24 -19 29 0 6 -7 10 -15 10 -22 0 -18 -17 5 -30 18 -10 21
-19 18 -78 -2 -54 1 -71 15 -85 10 -10 22 -15 27 -12 6 4 10 2 10 -2 0 -12
-37 -43 -43 -36 -11 11 -28 -9 -18 -21 8 -10 26 -12 74 -7 5 1 5 5 2 11 -4 6
1 7 12 3 29 -10 44 -25 42 -42 -3 -33 2 -39 41 -45 31 -5 40 -11 40 -26 0 -22
-12 -24 -97 -14 -47 6 -53 9 -53 30 0 13 -4 24 -10 24 -5 0 -9 -8 -7 -17 3
-25 -4 -26 -84 -19 -99 10 -102 12 -94 55 10 55 21 69 48 64 21 -4 23 -2 19
25 -3 23 -8 29 -23 25 -10 -3 -19 -3 -19 -1 0 18 26 75 39 86 10 8 11 11 2 6
-10 -5 -12 -3 -5 7 4 8 9 19 11 24 17 71 30 105 51 128 26 27 65 36 78 16z
m1431 -24 c0 -8 -4 -12 -9 -9 -4 3 -8 9 -8 15 0 5 4 9 8 9 5 0 9 -7 9 -15z
m706 -5 c-3 -11 -1 -20 5 -20 5 0 9 -8 8 -17 -1 -12 5 -17 17 -15 9 2 17 -2
17 -8 0 -5 7 -10 16 -10 10 0 14 6 11 14 -6 15 12 26 44 26 14 0 21 -9 26 -30
3 -16 10 -30 15 -30 5 0 6 -4 3 -10 -3 -5 1 -10 9 -10 17 0 22 -15 7 -24 -5
-3 -1 -22 9 -42 15 -29 17 -40 7 -55 -8 -13 -13 -15 -19 -6 -6 9 -8 9 -8 0 0
-6 -9 -15 -21 -18 -13 -4 -18 -12 -15 -22 4 -10 0 -13 -12 -11 -9 2 -18 13
-20 25 -2 11 -12 23 -23 26 -10 3 -19 13 -19 22 0 11 5 15 15 12 8 -4 17 -2
20 3 4 6 0 10 -7 10 -7 0 -19 9 -26 20 -7 11 -19 20 -28 20 -8 0 -13 4 -9 9 3
5 1 12 -5 16 -7 4 -7 12 0 25 13 24 13 33 0 25 -5 -3 -10 1 -10 10 0 9 -5 13
-10 10 -6 -3 -13 2 -17 12 -4 10 -11 21 -17 25 -7 5 -6 8 3 8 7 0 11 6 7 15
-3 10 1 15 13 15 14 0 18 -5 14 -20z m167 15 c0 -2 -10 -10 -22 -16 -21 -11
-22 -11 -9 4 13 16 31 23 31 12z m35 -15 c3 -5 -3 -10 -15 -10 -12 0 -18 5
-15 10 3 6 10 10 15 10 5 0 12 -4 15 -10z m2442 4 c-3 -3 -12 -4 -19 -1 -8 3
-5 6 6 6 11 1 17 -2 13 -5z m-4969 -22 c2 -7 -3 -12 -12 -12 -9 0 -16 7 -16
16 0 17 22 14 28 -4z m2582 8 c0 -5 -10 -10 -22 -10 -19 0 -20 2 -8 10 19 13
30 13 30 0z m-2540 -42 c0 -21 -22 -48 -39 -48 -24 0 -45 25 -38 45 7 16 77
19 77 3z m2220 -9 c0 -11 -4 -17 -10 -14 -5 3 -10 13 -10 21 0 8 5 14 10 14 6
0 10 -9 10 -21z m-756 -15 c3 -8 1 -14 -4 -14 -5 0 -7 -7 -4 -15 4 -10 0 -15
-14 -15 -11 0 -23 -6 -25 -12 -3 -7 -6 3 -6 22 -1 26 2 31 9 20 8 -13 10 -12
10 3 0 9 -6 17 -12 17 -9 0 -9 3 1 9 17 11 38 4 45 -15z m1062 15 c4 -6 10
-26 14 -44 7 -29 5 -31 -16 -27 -14 2 -24 0 -24 -7 0 -6 -4 -11 -9 -11 -4 0
-7 11 -5 25 1 16 -6 33 -19 45 -11 11 -15 20 -9 20 7 0 21 -9 32 -20 l20 -20
-4 25 c-5 26 7 34 20 14z m-1971 -9 c3 -5 1 -10 -4 -10 -6 0 -11 5 -11 10 0 6
2 10 4 10 3 0 8 -4 11 -10z m1555 -30 c0 -5 -4 -10 -10 -10 -5 0 -10 5 -10 10
0 6 5 10 10 10 6 0 10 -4 10 -10z m-2003 -22 c-3 -8 -6 -5 -6 6 -1 11 2 17 5
13 3 -3 4 -12 1 -19z m1928 2 c3 -6 -1 -7 -9 -4 -18 7 -21 14 -7 14 6 0 13 -4
16 -10z m-538 -22 c-3 -8 -6 -5 -6 6 -1 11 2 17 5 13 3 -3 4 -12 1 -19z
m-1563 -3 c3 -8 1 -15 -4 -15 -6 0 -10 7 -10 15 0 8 2 15 4 15 2 0 6 -7 10
-15z m2063 -1 c46 -6 49 -9 30 -28 -13 -13 -16 -13 -20 -1 -3 7 -18 15 -33 17
-15 2 -30 9 -32 17 -3 9 0 11 7 7 6 -4 28 -10 48 -12z m-1730 0 c-3 -3 -12 -4
-19 -1 -8 3 -5 6 6 6 11 1 17 -2 13 -5z m1653 2 c0 -2 -9 -6 -20 -9 -11 -3
-20 -1 -20 4 0 5 9 9 20 9 11 0 20 -2 20 -4z m2955 -26 c-3 -5 2 -22 12 -37
10 -15 12 -24 6 -20 -8 5 -13 3 -13 -5 0 -10 -3 -9 -9 2 -6 8 -8 18 -5 22 3 4
0 17 -6 28 -9 16 -8 20 5 20 9 0 13 -4 10 -10z m-4735 -16 c0 -8 -5 -12 -10
-9 -6 4 -8 11 -5 16 9 14 15 11 15 -7z m1970 6 c0 -5 -4 -10 -9 -10 -6 0 -13
5 -16 10 -3 6 1 10 9 10 9 0 16 -4 16 -10z m-2186 -43 c-10 -28 -24 -19 -24
15 0 29 2 31 15 17 9 -9 13 -23 9 -32z m2669 -4 c-3 -9 -9 -11 -15 -5 -5 5 -6
17 -2 26 5 13 9 14 14 5 5 -7 6 -19 3 -26z m-543 -1 c-11 -2 -20 -8 -20 -13 0
-5 -5 -9 -11 -9 -5 0 -7 5 -3 12 4 6 3 8 -4 5 -12 -8 -42 1 -42 13 0 4 11 5
25 2 14 -2 25 0 25 6 0 7 9 6 25 -1 23 -11 23 -12 5 -15z m607 13 c0 -8 -4
-12 -9 -9 -5 3 -6 10 -3 15 9 13 12 11 12 -6z m2398 5 c4 -6 11 -8 16 -5 5 4
9 1 9 -4 0 -16 -26 -13 -40 4 -8 9 -9 15 -2 15 6 0 14 -5 17 -10z m-3095 -10
c0 -5 -4 -10 -10 -10 -5 0 -10 5 -10 10 0 6 5 10 10 10 6 0 10 -4 10 -10z
m3065 -18 c-3 -3 -11 0 -18 7 -9 10 -8 11 6 5 10 -3 15 -9 12 -12z m-2730 -2
c3 -5 1 -10 -4 -10 -6 0 -11 5 -11 10 0 6 2 10 4 10 3 0 8 -4 11 -10z m230 -8
c-3 -3 -11 0 -18 7 -9 10 -8 11 6 5 10 -3 15 -9 12 -12z m45 3 c0 -1 -7 -8
-15 -15 -13 -10 -15 -9 -15 8 0 15 5 20 15 16 8 -4 15 -7 15 -9z m-449 -18
c10 3 19 0 19 -6 0 -6 -10 -11 -22 -11 -21 -1 -21 -2 -5 -11 21 -12 23 -41 2
-33 -8 3 -17 15 -20 26 -4 10 -18 24 -31 30 -17 8 -21 14 -12 19 6 4 20 2 31
-6 10 -7 27 -11 38 -8z m-2212 -34 c-16 -93 -17 -97 -14 -33 2 36 4 68 4 73 1
4 5 7 10 7 4 0 5 -21 0 -47z m2731 39 c0 -4 -9 -8 -20 -9 -11 -1 -20 2 -20 8
0 5 9 9 20 9 11 0 20 -4 20 -8z m2170 -22 c0 -4 -6 -10 -12 -13 -8 -3 -13 4
-13 18 0 18 3 21 13 13 6 -6 12 -14 12 -18z m-4640 10 c0 -5 -2 -10 -4 -10 -3
0 -8 5 -11 10 -3 6 -1 10 4 10 6 0 11 -4 11 -10z m2333 -35 c-26 -21 -33 -18
-33 11 0 14 4 23 10 19 6 -4 7 -11 4 -17 -4 -6 -1 -9 7 -6 8 3 15 10 15 16 3
24 6 27 11 9 3 -11 -3 -24 -14 -32z m237 35 c8 -5 11 -12 8 -16 -4 -3 -14 1
-23 10 -18 17 -9 21 15 6z m2500 0 c0 -5 -4 -10 -10 -10 -5 0 -10 5 -10 10 0
6 5 10 10 10 6 0 10 -4 10 -10z m-4935 -10 c-3 -5 -10 -10 -16 -10 -5 0 -9 5
-9 10 0 6 7 10 16 10 8 0 12 -4 9 -10z m2002 -33 c7 -5 10 -14 7 -19 -4 -6
-10 -5 -15 3 -6 9 -9 -1 -9 -30 0 -37 -2 -42 -15 -31 -8 6 -32 13 -53 13 -34
2 -38 4 -34 25 3 16 8 20 17 12 6 -5 15 -7 18 -3 4 3 7 1 7 -5 0 -7 5 -12 10
-12 6 0 10 7 10 16 0 8 5 12 10 9 6 -4 7 -11 4 -17 -4 -7 -2 -8 4 -4 18 11 15
49 -3 43 -15 -6 -29 6 -19 16 7 6 45 -3 61 -16z m288 14 c3 -5 1 -12 -5 -16
-5 -3 -10 1 -10 9 0 18 6 21 15 7z m-1858 -7 c-3 -3 -12 -4 -19 -1 -8 3 -5 6
6 6 11 1 17 -2 13 -5z m937 -10 c9 -24 7 -28 -9 -14 -17 14 -20 30 -6 30 5 0
12 -7 15 -16z m-44 -49 c0 -7 -43 4 -53 14 -9 10 -8 11 7 5 16 -6 17 -5 6 17
-10 21 -9 20 14 -5 14 -16 26 -30 26 -31z m-2187 38 c-7 -2 -19 -2 -25 0 -7 3
-2 5 12 5 14 0 19 -2 13 -5z m1254 1 c-3 -3 -12 -4 -19 -1 -8 3 -5 6 6 6 11 1
17 -2 13 -5z m43 2 c0 -3 -4 -8 -10 -11 -5 -3 -10 -1 -10 4 0 6 5 11 10 11 6
0 10 -2 10 -4z m978 -21 c-3 -3 -9 2 -12 12 -6 14 -5 15 5 6 7 -7 10 -15 7
-18z m1512 -10 c0 -32 -3 -36 -32 -42 -32 -7 -32 -7 -8 -14 14 -4 18 -7 9 -8
-24 -1 -31 -79 -8 -91 9 -5 20 -6 24 -2 4 4 5 -3 2 -15 -3 -13 -1 -26 4 -29
22 -13 0 -26 -51 -30 -30 -2 -84 -8 -120 -13 -59 -9 -54 -9 55 -8 115 2 120 1
117 -18 -5 -36 -5 -59 0 -92 3 -18 3 -35 0 -37 -3 -3 -4 -43 -2 -88 3 -81 4
-145 1 -180 -1 -14 -10 -18 -37 -18 -38 0 -39 19 -1 21 21 1 21 1 2 7 -19 7
-21 17 -24 151 -3 161 -7 179 -47 210 -44 34 -106 24 -124 -22 -8 -20 -9 -19
-16 11 -8 37 -42 57 -80 48 -13 -4 -26 -2 -29 4 -3 5 -1 10 5 10 6 0 10 8 8
18 -4 28 20 52 53 52 15 0 31 4 34 10 3 5 26 18 50 29 l45 20 46 -25 c54 -29
72 -25 23 5 -34 21 -24 30 12 11 11 -6 19 -7 19 -1 0 11 -48 24 -61 15 -5 -3
-20 1 -33 10 -22 14 -25 13 -42 -5 -10 -11 -33 -27 -52 -36 -34 -16 -35 -16
-53 5 -9 12 -23 22 -30 22 -7 0 -10 2 -7 5 2 3 25 1 50 -3 42 -8 48 -7 78 19
17 16 29 33 26 38 -4 5 -2 12 4 16 5 3 10 1 10 -4 0 -8 7 -7 20 1 10 7 17 14
14 17 -4 5 118 57 139 60 4 1 7 -15 7 -34z m-2950 15 c0 -5 -2 -10 -4 -10 -3
0 -8 5 -11 10 -3 6 -1 10 4 10 6 0 11 -4 11 -10z m4670 -5 c0 -8 -2 -15 -4
-15 -2 0 -6 7 -10 15 -3 8 -1 15 4 15 6 0 10 -7 10 -15z m286 -21 c-6 -22 -4
-25 12 -19 13 4 22 0 26 -11 9 -23 0 -29 -20 -13 -15 12 -16 12 -10 -8 9 -27
-6 -36 -30 -18 -12 9 -14 14 -6 15 13 0 13 31 -1 41 -12 9 3 39 20 39 11 0 13
-7 9 -26z m-4823 9 c-7 -2 -19 -2 -25 0 -7 3 -2 5 12 5 14 0 19 -2 13 -5z
m1727 -19 c0 -8 -6 -14 -14 -14 -12 0 -14 10 -7 38 3 10 21 -11 21 -24z
m-1754 -16 c-1 -28 -23 -47 -55 -48 l-24 0 27 25 c14 13 26 29 26 35 0 5 6 10
14 10 8 0 13 -10 12 -22z m4414 12 c0 -5 -4 -10 -10 -10 -5 0 -10 5 -10 10 0
6 5 10 10 10 6 0 10 -4 10 -10z m-5080 -20 c0 -5 -8 -10 -17 -10 -15 0 -16 2
-3 10 19 12 20 12 20 0z m1844 -4 c6 2 11 -6 11 -21 0 -14 -3 -25 -7 -25 -5 0
-8 6 -8 14 0 8 -9 18 -20 21 -11 4 -17 11 -14 17 4 6 10 6 16 0 6 -6 16 -8 22
-6z m63 -28 c-15 -9 -19 -4 -11 16 5 14 9 15 15 5 5 -8 3 -17 -4 -21z m1011
20 c-2 -6 -10 -14 -16 -16 -7 -2 -10 2 -6 12 7 18 28 22 22 4z m-2063 -8 c4
-6 15 -8 25 -5 10 3 25 -1 34 -10 22 -22 20 -28 -3 -15 -11 5 -29 10 -40 10
-12 0 -21 5 -21 11 0 5 -4 8 -8 5 -4 -2 -14 -1 -22 5 -12 7 -10 9 7 9 12 0 25
-5 28 -10z m2022 4 c-3 -3 -12 -4 -19 -1 -8 3 -5 6 6 6 11 1 17 -2 13 -5z
m-2082 -14 c3 -6 -1 -7 -9 -4 -18 7 -21 14 -7 14 6 0 13 -4 16 -10z m2055 -10
c0 -5 -4 -10 -9 -10 -6 0 -13 5 -16 10 -3 6 1 10 9 10 9 0 16 -4 16 -10z
m2220 0 c0 -5 -2 -10 -4 -10 -3 0 -8 5 -11 10 -3 6 -1 10 4 10 6 0 11 -4 11
-10z m-4435 -23 c19 -10 19 -10 -3 -18 -56 -21 -70 -61 -47 -141 7 -26 35 -40
35 -18 0 6 16 10 35 10 19 0 35 -5 35 -11 0 -5 5 -7 10 -4 12 7 12 3 4 -19 -5
-13 -21 -16 -73 -15 -46 1 -59 3 -41 9 l25 7 -27 7 c-48 14 -63 5 -66 -41 -3
-37 0 -42 20 -45 14 -2 30 5 39 16 16 19 16 19 21 -7 3 -16 1 -27 -6 -27 -6 0
-20 -14 -31 -30 -11 -16 -26 -30 -34 -30 -11 0 -11 3 -1 15 10 12 10 15 -4 15
-10 0 -16 -9 -16 -25 0 -18 -5 -25 -19 -25 -27 0 -35 -17 -14 -29 17 -10 16
-10 -2 -11 -12 0 -27 -6 -34 -12 -11 -10 -13 -10 -7 0 10 16 -5 15 -31 -3 -20
-14 -22 -14 -20 5 1 19 21 34 35 27 4 -2 14 3 22 12 13 14 13 18 -2 34 -10 9
-20 17 -23 17 -24 0 -27 3 -10 10 19 8 19 9 1 9 -10 1 -25 -7 -32 -16 -13 -17
-14 -17 -8 0 5 14 0 17 -23 17 -17 0 -58 3 -93 7 -56 5 -63 4 -57 -10 4 -10 2
-17 -3 -17 -10 0 -3 142 10 216 8 40 9 33 5 -42 l-5 -91 47 -7 c25 -3 69 -6
97 -6 111 0 155 -22 111 -54 -13 -9 -14 -14 -3 -29 21 -28 45 -12 40 25 -3 17
1 78 7 137 6 58 14 129 17 157 l5 51 47 -5 c26 -2 56 -9 67 -15z m1315 -1 c0
-2 -9 -2 -20 1 -15 4 -20 0 -21 -13 0 -11 -3 -14 -6 -6 -3 7 -2 19 1 28 4 12
10 13 26 4 11 -6 20 -12 20 -14z m-1940 10 c0 -3 -4 -8 -10 -11 -5 -3 -10 -1
-10 4 0 6 5 11 10 11 6 0 10 -2 10 -4z m56 -39 c-3 -16 -6 -38 -6 -48 0 -21
-30 -27 -31 -6 0 6 -4 3 -8 -8 -7 -17 -9 -16 -15 13 -4 17 -12 32 -17 32 -6 0
-7 -9 -4 -20 7 -23 -10 -27 -19 -4 -4 11 -12 13 -28 8 -20 -6 -21 -5 -10 9 10
12 10 16 0 19 -7 3 2 11 19 20 36 18 51 12 25 -9 -9 -8 3 -3 27 10 54 31 75
26 67 -16z m3044 21 c0 -5 6 -8 13 -6 25 4 57 -14 57 -33 0 -11 -6 -19 -12
-18 -7 1 -25 -1 -40 -5 -36 -11 -53 1 -32 21 15 15 14 18 -5 33 -12 8 -19 19
-15 22 8 9 34 -2 34 -14z m-2150 -9 c0 -5 -15 -8 -32 -8 -24 1 -27 3 -10 6 12
2 22 9 22 14 0 6 5 7 10 4 6 -3 10 -10 10 -16z m3977 15 c-3 -3 -12 -4 -19 -1
-8 3 -5 6 6 6 11 1 17 -2 13 -5z m-4167 -24 c6 -11 8 -25 5 -30 -3 -5 -2 -11
3 -14 13 -8 13 -71 0 -89 -19 -24 -60 -12 -56 17 2 11 9 20 16 19 6 -2 12 1
12 6 0 13 -26 21 -36 11 -5 -4 -34 -10 -64 -12 -49 -3 -55 -1 -55 17 0 26 14
36 41 29 12 -3 25 -1 28 5 4 5 13 8 22 4 17 -6 54 23 54 44 0 20 18 16 30 -7z
m104 -15 c35 7 36 6 36 -23 0 -34 -14 -42 -67 -40 -21 1 -33 6 -33 15 0 7 -4
13 -8 13 -4 0 -8 16 -8 35 l0 35 22 -21 c17 -16 29 -19 58 -14z m1349 5 c3
-11 1 -18 -4 -14 -5 3 -9 12 -9 20 0 20 7 17 13 -6z m731 5 c-6 -16 -24 -21
-24 -7 0 11 11 22 21 22 5 0 6 -7 3 -15z m-2797 -27 c-3 -7 -5 -2 -5 12 0 14
2 19 5 13 2 -7 2 -19 0 -25z m60 10 c-3 -8 -6 -5 -6 6 -1 11 2 17 5 13 3 -3 4
-12 1 -19z m4953 18 c0 -2 -7 -6 -15 -10 -8 -3 -15 -1 -15 4 0 6 7 10 15 10 8
0 15 -2 15 -4z m-3240 -18 c0 7 5 10 11 6 8 -4 7 -9 -2 -15 -15 -9 -29 -3 -29
14 0 7 4 6 10 -3 7 -11 10 -11 10 -2z m994 -3 c3 -9 0 -15 -9 -15 -8 0 -15 7
-15 15 0 8 4 15 9 15 5 0 11 -7 15 -15z m2484 -20 c-3 -3 -9 2 -12 12 -6 14
-5 15 5 6 7 -7 10 -15 7 -18z m-15 -9 c3 -7 -7 -17 -21 -24 -20 -9 -23 -9 -14
0 15 15 16 31 0 22 -6 -4 -8 -3 -5 3 8 13 35 12 40 -1z m-1190 -29 c-3 -4 -6
-7 -7 -5 -1 2 -8 12 -16 22 -14 18 -14 18 7 6 12 -8 19 -18 16 -23z m-1853
-17 c0 -5 -7 -7 -15 -4 -8 4 -12 10 -9 15 6 11 24 2 24 -11z m1747 -12 c-3 -8
-6 -5 -6 6 -1 11 2 17 5 13 3 -3 4 -12 1 -19z m240 -4 c-3 -3 -12 -4 -19 -1
-8 3 -5 6 6 6 11 1 17 -2 13 -5z m-2173 -35 c-8 -13 -24 -1 -24 18 0 13 3 13
15 3 8 -7 12 -16 9 -21z m-114 6 c7 -9 8 -15 2 -15 -5 0 -12 7 -16 15 -3 8 -4
15 -2 15 2 0 9 -7 16 -15z m47 -15 c-3 -11 -1 -18 4 -14 5 3 9 12 9 20 0 20
18 17 25 -5 8 -26 -4 -54 -19 -42 -6 5 -18 10 -27 12 -13 3 -15 9 -8 27 10 27
23 29 16 2z m2230 -2 c-3 -8 -6 -5 -6 6 -1 11 2 17 5 13 3 -3 4 -12 1 -19z
m680 -15 c-3 -10 -5 -4 -5 12 0 17 2 24 5 18 2 -7 2 -21 0 -30z m-2507 8 c0
-22 -15 -35 -29 -27 -13 9 -1 46 15 46 8 0 14 -9 14 -19z m685 -1 c-3 -5 -12
-7 -20 -3 -21 7 -19 13 6 13 11 0 18 -4 14 -10z m-2818 -16 c-3 -3 -12 -4 -19
-1 -8 3 -5 6 6 6 11 1 17 -2 13 -5z m-612 -13 c3 -5 1 -12 -5 -16 -5 -3 -10
-2 -10 4 0 6 -7 7 -17 4 -11 -4 -14 -3 -9 5 9 14 33 16 41 3z m1056 -34 c-15
-15 -24 -2 -16 24 7 20 8 21 17 5 7 -12 7 -21 -1 -29z m3944 33 c3 -5 -1 -10
-10 -10 -9 0 -13 5 -10 10 3 6 8 10 10 10 2 0 7 -4 10 -10z m-3835 -7 c0 -5
-5 -15 -10 -23 -7 -12 -9 -10 -7 8 1 19 17 33 17 15z m2153 -6 c-14 -6 -27 -5
-39 2 -16 8 -12 10 21 9 33 -1 36 -3 18 -11z m187 -44 c5 -52 5 -52 -15 -34
-22 20 -83 33 -91 19 -3 -4 -10 -8 -16 -8 -7 0 -6 6 2 15 7 8 18 15 26 15 28
0 62 23 57 37 -4 11 0 14 13 11 15 -2 20 -14 24 -55z m-245 37 c4 -6 11 -8 16
-5 11 7 11 3 3 -19 -5 -14 -9 -13 -25 5 -11 12 -19 24 -19 26 0 7 19 2 25 -7z
m-3266 -9 c18 -12 0 -21 -28 -14 -17 4 -19 8 -9 14 16 11 20 11 37 0z m285
-35 c-3 -9 -10 -16 -15 -16 -14 0 -11 30 4 31 9 0 9 2 -1 6 -6 2 -9 9 -6 15
10 15 25 -17 18 -36z m606 37 c0 -5 -5 -15 -10 -23 -7 -12 -9 -10 -7 8 1 19
17 33 17 15z m1840 -26 c0 -6 -7 -18 -15 -27 -12 -14 -13 -23 -4 -49 6 -18 8
-35 4 -39 -4 -4 -10 -1 -12 6 -8 23 -22 12 -26 -20 -2 -18 -3 -13 -1 12 4 65
15 110 26 110 6 0 8 7 5 14 -4 10 -1 13 9 9 7 -3 14 -10 14 -16z m60 4 c0 -6
-4 -13 -10 -16 -5 -3 -10 1 -10 9 0 9 5 16 10 16 6 0 10 -4 10 -9z m-1760 -5
c0 -3 -4 -8 -10 -11 -5 -3 -10 -1 -10 4 0 6 5 11 10 11 6 0 10 -2 10 -4z
m2336 -19 c4 -4 -2 -7 -14 -7 -12 0 -22 4 -22 9 0 10 26 9 36 -2z m-599 -29
c-3 -8 -6 -5 -6 6 -1 11 2 17 5 13 3 -3 4 -12 1 -19z m393 12 c0 -5 -4 -10
-10 -10 -5 0 -10 5 -10 10 0 6 5 10 10 10 6 0 10 -4 10 -10z m270 -4 c0 -8 6
-17 13 -19 9 -4 9 -6 0 -6 -7 -1 -17 8 -23 19 -7 14 -7 20 0 20 5 0 10 -6 10
-14z m1445 5 c2 -4 -9 -7 -26 -7 -16 0 -29 3 -29 7 0 3 11 7 25 7 14 0 27 -4
30 -7z m183 -8 c2 -8 -5 -13 -16 -13 -28 0 -52 10 -52 22 0 14 63 5 68 -9z
m644 -25 c-6 -6 -7 0 -4 19 5 21 7 23 10 9 2 -10 0 -22 -6 -28z m-2612 6 c0
-8 -4 -14 -9 -14 -6 0 -9 9 -8 19 1 22 17 18 17 -5z m-750 2 c0 -11 -19 -15
-25 -6 -3 5 1 10 9 10 9 0 16 -2 16 -4z m820 -11 c0 -8 -4 -15 -10 -15 -5 0
-10 7 -10 15 0 8 5 15 10 15 6 0 10 -7 10 -15z m2334 0 c3 -8 1 -15 -5 -15 -6
0 -8 -7 -5 -16 3 -9 0 -24 -7 -35 -8 -11 -12 -35 -10 -58 2 -22 -1 -42 -7 -46
-8 -5 -8 -11 0 -20 7 -8 8 -20 4 -27 -5 -7 -7 -25 -5 -40 2 -24 -1 -28 -23
-28 -18 0 -26 5 -26 18 0 9 -3 58 -6 107 -5 90 -5 90 14 68 l20 -22 5 27 c3
15 9 35 13 45 4 12 2 17 -7 15 -7 -2 -15 6 -17 17 -4 17 -2 18 12 6 14 -11 16
-11 16 3 0 20 26 21 34 1z m-4972 -40 c-6 -14 -16 -25 -22 -25 -13 0 -13 26 1
52 17 31 36 7 21 -27z m332 23 c-7 -23 -21 -38 -37 -38 -8 0 33 58 41 59 2 1
0 -9 -4 -21z m1936 3 c0 -5 -9 -11 -20 -14 -17 -4 -18 -2 -9 14 9 18 29 18 29
0z m423 13 c3 -4 0 -13 -8 -21 -17 -17 -19 -33 -5 -33 6 0 10 -4 10 -10 0 -5
-7 -10 -15 -10 -19 0 -19 0 1 -39 18 -37 13 -61 -16 -68 -11 -3 -21 -13 -21
-22 -1 -13 -2 -12 -6 2 -3 12 -11 17 -21 15 -14 -4 -18 5 -20 59 -2 45 0 63 9
63 7 0 4 7 -7 15 -17 13 -16 14 18 8 34 -5 38 -3 44 21 6 24 23 34 37 20z
m1791 -3 c3 -4 17 -6 31 -3 15 2 25 0 25 -7 0 -7 -4 -9 -10 -6 -5 3 -10 2 -10
-4 0 -5 5 -13 10 -16 6 -3 10 -23 10 -43 -1 -35 -2 -36 -15 -18 -14 19 -15 18
-15 -11 0 -39 9 -65 21 -57 5 3 9 0 9 -5 0 -6 6 -11 13 -11 10 0 12 22 9 95
l-4 95 26 0 c13 0 28 -5 31 -10 4 -7 12 -7 18 -2 7 4 50 9 97 11 75 2 86 0 97
-17 11 -19 10 -20 -22 -11 -36 10 -104 -9 -106 -30 -1 -6 -3 -15 -4 -21 -1 -5
-3 -52 -4 -103 l-1 -93 -42 2 c-24 1 -54 3 -68 3 -20 1 -22 3 -10 11 10 6 11
10 3 10 -7 0 -12 6 -10 13 1 7 -7 11 -22 9 -13 -2 -21 0 -18 5 12 20 -34 10
-55 -12 -12 -13 -26 -21 -30 -19 -12 8 -9 62 4 66 14 5 17 68 3 68 -6 0 -11 9
-11 20 0 13 5 19 13 16 16 -6 16 -1 3 25 -9 15 -7 19 5 19 12 0 15 6 10 20 -6
20 9 28 19 11z m-4534 -22 c0 -6 -4 -7 -10 -4 -5 3 -10 11 -10 16 0 6 5 7 10
4 6 -3 10 -11 10 -16z m77 -1 c-3 -8 -6 -5 -6 6 -1 11 2 17 5 13 3 -3 4 -12 1
-19z m73 18 c0 -2 -9 -6 -20 -9 -11 -3 -18 -1 -14 4 5 9 34 13 34 5z m165 -37
c-4 -5 -12 -9 -18 -8 -9 0 -8 2 1 6 6 2 9 10 6 15 -4 7 -2 8 5 4 6 -4 9 -12 6
-17z m2758 6 c-3 -9 -8 -14 -10 -11 -3 3 -2 9 2 15 9 16 15 13 8 -4z m1363 3
c6 -10 -7 -11 -64 -9 -37 2 -43 -1 -52 -23 -5 -14 -16 -26 -25 -26 -11 0 -15
-11 -15 -45 0 -25 -4 -45 -10 -45 -6 0 -9 24 -7 55 l2 55 -35 2 -35 1 32 4
c22 3 30 8 27 18 -4 8 3 15 18 18 36 7 159 3 164 -5z m-2476 -13 c0 -8 -4 -15
-10 -15 -5 0 -7 7 -4 15 4 8 8 15 10 15 2 0 4 -7 4 -15z m1160 5 c0 -5 -4 -10
-10 -10 -5 0 -10 5 -10 10 0 6 5 10 10 10 6 0 10 -4 10 -10z m2116 -11 c3 -5
-5 -7 -18 -5 -13 3 -27 5 -31 5 -5 1 -6 5 -3 10 7 10 44 3 52 -10z m-326 1 c0
-5 -2 -10 -4 -10 -3 0 -8 5 -11 10 -3 6 -1 10 4 10 6 0 11 -4 11 -10z m40 0
c0 -5 -4 -10 -10 -10 -5 0 -10 5 -10 10 0 6 5 10 10 10 6 0 10 -4 10 -10z
m-1960 -16 c0 -2 -7 -4 -15 -4 -8 0 -15 4 -15 10 0 5 7 7 15 4 8 -4 15 -8 15
-10z m-3000 -10 c0 -2 -12 -4 -26 -4 -14 0 -23 4 -20 9 6 8 46 4 46 -5z m155
6 c3 -5 1 -10 -4 -10 -6 0 -11 5 -11 10 0 6 2 10 4 10 3 0 8 -4 11 -10z m2879
-6 c3 -8 2 -12 -4 -9 -6 3 -10 10 -10 16 0 14 7 11 14 -7z m1366 0 c0 -2 -7
-4 -15 -4 -8 0 -15 4 -15 10 0 5 7 7 15 4 8 -4 15 -8 15 -10z m-4343 0 c-3 -3
-12 -4 -19 -1 -8 3 -5 6 6 6 11 1 17 -2 13 -5z m4402 -99 l-1 -70 -9 54 c-5
30 -11 56 -13 59 -3 2 -8 -22 -12 -54 -6 -48 -8 -54 -15 -36 -8 20 -15 23 -51
20 -38 -2 -42 0 -41 20 0 12 1 33 2 47 1 14 6 25 11 25 6 0 9 -3 9 -7 -5 -29
5 -50 26 -60 22 -10 25 -9 25 9 0 34 18 57 40 51 11 -3 20 0 20 6 0 6 -4 11
-10 11 -5 0 -10 8 -10 17 0 15 2 14 15 -3 10 -13 14 -42 14 -89z m-4662 58
c-3 -10 -5 -4 -5 12 0 17 2 24 5 18 2 -7 2 -21 0 -30z m4443 22 c0 -8 5 -15
12 -15 9 0 9 -3 0 -12 -7 -7 -12 -25 -12 -40 0 -18 -5 -28 -15 -28 -12 0 -15
13 -15 55 0 42 3 55 15 55 8 0 15 -7 15 -15z m-1770 -5 c0 -5 -4 -10 -10 -10
-5 0 -10 5 -10 10 0 6 5 10 10 10 6 0 10 -4 10 -10z m-2505 -9 c3 -5 1 -12 -5
-16 -5 -3 -10 1 -10 9 0 18 6 21 15 7z m2372 -38 c-3 -10 -5 -2 -5 17 0 19 2
27 5 18 2 -10 2 -26 0 -35z m-2317 27 c0 -5 -5 -10 -11 -10 -5 0 -7 5 -4 10 3
6 8 10 11 10 2 0 4 -4 4 -10z m2875 -8 c40 1 70 -4 58 -9 -15 -5 -18 -43 -4
-43 5 0 12 11 15 24 10 42 76 42 76 0 0 -14 -4 -23 -9 -19 -5 3 -12 1 -16 -5
-3 -5 1 -10 9 -10 19 0 21 -11 5 -27 -16 -16 -39 8 -39 41 0 14 -4 26 -10 26
-9 0 -14 -17 -13 -47 1 -7 -5 -13 -13 -13 -15 0 -27 17 -31 44 -5 30 -13 33
-20 8 -3 -12 -9 -22 -14 -22 -5 0 -6 -7 -2 -16 4 -12 1 -15 -13 -12 -13 2 -20
13 -22 36 -2 17 1 32 7 32 6 0 8 8 5 18 -4 10 -3 13 3 6 4 -7 17 -12 28 -12z
m-3237 1 c-10 -2 -18 -9 -18 -15 0 -6 -3 -9 -6 -5 -10 10 6 27 24 26 15 -1 15
-2 0 -6z m4524 -28 c2 -19 0 -35 -4 -35 -4 0 -8 16 -8 35 0 19 2 35 4 35 2 0
6 -16 8 -35z m-1722 -4 c0 -10 -6 -18 -13 -18 -9 0 -12 9 -9 24 5 26 22 21 22
-6z m-2760 15 c0 -3 -4 -8 -10 -11 -5 -3 -10 -1 -10 4 0 6 5 11 10 11 6 0 10
-2 10 -4z m2687 -48 c-3 -8 -6 -5 -6 6 -1 11 2 17 5 13 3 -3 4 -12 1 -19z
m253 -8 c0 -16 -4 -30 -9 -30 -5 0 -12 -8 -14 -17 -3 -10 -5 3 -6 30 -1 36 3
47 14 47 10 0 15 -10 15 -30z m-3153 14 c-3 -3 -12 -4 -19 -1 -8 3 -5 6 6 6
11 1 17 -2 13 -5z m433 -4 c0 -5 -4 -10 -10 -10 -5 0 -10 5 -10 10 0 6 5 10
10 10 6 0 10 -4 10 -10z m2595 -20 c-3 -4 -14 -6 -25 -3 -20 5 -25 15 -14 26
9 9 46 -12 39 -23z m-55 4 c0 -2 -7 -4 -15 -4 -8 0 -15 4 -15 10 0 5 7 7 15 4
8 -4 15 -8 15 -10z m121 -15 c-5 -13 -10 -19 -10 -12 -1 15 10 45 15 40 3 -2
0 -15 -5 -28z m180 16 c-1 -15 -24 -12 -29 3 -3 9 2 13 12 10 10 -1 17 -7 17
-13z m66 -7 c-3 -8 -6 -5 -6 6 -1 11 2 17 5 13 3 -3 4 -12 1 -19z m377 8 c-10
-27 -64 -27 -64 0 0 9 11 14 35 14 25 0 33 -4 29 -14z m329 5 c4 -1 7 -5 7
-11 0 -5 -18 -10 -40 -10 -26 0 -40 5 -40 13 0 11 29 14 73 8z m-1155 -26 c-3
-3 -9 2 -12 12 -6 14 -5 15 5 6 7 -7 10 -15 7 -18z m747 7 c0 -18 -20 -15 -23
4 -3 10 1 15 10 12 7 -3 13 -10 13 -16z m908 -12 c3 -11 1 -20 -4 -20 -5 0 -9
9 -9 20 0 11 2 20 4 20 2 0 6 -9 9 -20z m-1376 -12 c-3 -8 -6 -5 -6 6 -1 11 2
17 5 13 3 -3 4 -12 1 -19z m120 -10 c-3 -7 -5 -2 -5 12 0 14 2 19 5 13 2 -7 2
-19 0 -25z m123 7 c0 -22 -17 -26 -34 -9 -20 20 -21 19 9 20 15 1 25 -4 25
-11z m841 -8 c-10 -9 -11 -8 -5 6 3 10 9 15 12 12 3 -3 0 -11 -7 -18z m89 13
c0 -5 -9 -11 -20 -11 -11 -1 -25 -2 -32 -3 -6 -1 -13 5 -15 12 -3 8 7 12 31
12 20 0 36 -4 36 -10z m430 -9 c13 -26 13 -31 -5 -31 -8 0 -15 9 -15 19 0 11
-8 22 -17 24 -14 4 -13 5 4 6 13 0 27 -7 33 -18z m-789 -7 c79 -3 156 -6 172
-6 45 -1 31 -15 -22 -22 -51 -7 -209 0 -271 11 -19 4 -47 6 -62 5 -16 0 -28 3
-28 8 0 8 48 19 61 13 3 -1 71 -5 150 -9z m759 -14 c0 -5 -4 -10 -9 -10 -6 0
-13 5 -16 10 -3 6 1 10 9 10 9 0 16 -4 16 -10z m-1615 -10 c-3 -5 -10 -10 -16
-10 -5 0 -9 5 -9 10 0 6 7 10 16 10 8 0 12 -4 9 -10z m1762 4 c-3 -3 -12 -4
-19 -1 -8 3 -5 6 6 6 11 1 17 -2 13 -5z m40 0 c-3 -3 -12 -4 -19 -1 -8 3 -5 6
6 6 11 1 17 -2 13 -5z m43 -10 c0 -2 -7 -4 -15 -4 -8 0 -15 4 -15 10 0 5 7 7
15 4 8 -4 15 -8 15 -10z m-233 -26 c-3 -8 -6 -5 -6 6 -1 11 2 17 5 13 3 -3 4
-12 1 -19z m-4657 3 c0 -6 -4 -13 -10 -16 -5 -3 -10 1 -10 9 0 9 5 16 10 16 6
0 10 -4 10 -9z m1550 -1 c8 -5 11 -10 5 -10 -5 0 -17 5 -25 10 -8 5 -10 10 -5
10 6 0 17 -5 25 -10z m3334 4 c18 -7 12 -24 -10 -24 -8 0 -14 7 -14 15 0 17 2
18 24 9z m-1980 -15 c-3 -6 0 -16 7 -21 12 -8 11 -9 -1 -5 -18 4 -27 37 -10
37 6 0 8 -5 4 -11z m2156 1 c0 -5 -4 -10 -10 -10 -5 0 -10 5 -10 10 0 6 5 10
10 10 6 0 10 -4 10 -10z m-4270 -10 c0 -5 -2 -10 -4 -10 -3 0 -8 5 -11 10 -3
6 -1 10 4 10 6 0 11 -4 11 -10z m980 0 c0 -5 -5 -10 -11 -10 -5 0 -7 5 -4 10
3 6 8 10 11 10 2 0 4 -4 4 -10z m-1460 -10 c0 -5 -4 -10 -10 -10 -5 0 -10 5
-10 10 0 6 5 10 10 10 6 0 10 -4 10 -10z m970 6 c0 -11 -19 -15 -25 -6 -3 5 1
10 9 10 9 0 16 -2 16 -4z m23 -16 c-3 -11 -9 -17 -15 -14 -5 3 -4 12 3 20 16
19 18 18 12 -6z m3587 0 c0 -5 -4 -10 -10 -10 -5 0 -10 5 -10 10 0 6 5 10 10
10 6 0 10 -4 10 -10z m-3780 -10 c0 -5 -5 -10 -11 -10 -5 0 -7 5 -4 10 3 6 8
10 11 10 2 0 4 -4 4 -10z m-50 -10 c0 -5 -5 -10 -11 -10 -5 0 -7 5 -4 10 3 6
8 10 11 10 2 0 4 -4 4 -10z m360 -19 c0 -14 -6 -19 -20 -18 -31 2 -24 37 7 37
7 0 13 -9 13 -19z m1627 -28 c-3 -10 -5 -2 -5 17 0 19 2 27 5 18 2 -10 2 -26
0 -35z m120 -5 c-2 -13 -4 -5 -4 17 -1 22 1 32 4 23 2 -10 2 -28 0 -40z m20
15 c-3 -10 -5 -4 -5 12 0 17 2 24 5 18 2 -7 2 -21 0 -30z m-1613 -5 c-4 -13
-10 -25 -14 -28 -4 -3 -10 -12 -14 -20 -3 -8 -4 -2 -1 13 5 25 23 55 33 57 2
0 0 -10 -4 -22z m1806 -3 c0 -8 0 -18 1 -22 0 -4 -4 -9 -10 -11 -6 -2 -11 8
-11 22 0 14 5 26 10 26 6 0 10 -7 10 -15z m-1749 -28 c-1 -4 -1 -29 -1 -55 0
-37 -4 -49 -15 -49 -10 0 -15 10 -14 26 0 24 1 24 10 6 6 -14 8 -5 5 33 -2 31
0 52 6 50 5 -2 9 -7 9 -11z m-215 -19 c4 -7 4 -10 -1 -6 -4 4 -15 2 -24 -5
-14 -11 -14 -10 -2 6 16 20 18 21 27 5z m34 -8 c0 -5 -2 -10 -4 -10 -3 0 -8 5
-11 10 -3 6 -1 10 4 10 6 0 11 -4 11 -10z m530 6 c0 -3 -4 -8 -10 -11 -5 -3
-10 -1 -10 4 0 6 5 11 10 11 6 0 10 -2 10 -4z m990 -16 c0 -5 -5 -10 -11 -10
-5 0 -7 5 -4 10 3 6 8 10 11 10 2 0 4 -4 4 -10z"/>
<path d="M820 1730 c0 -5 5 -10 10 -10 6 0 10 5 10 10 0 6 -4 10 -10 10 -5 0
-10 -4 -10 -10z"/>
<path d="M727 1436 c-4 -10 -1 -13 8 -9 8 3 12 9 9 14 -7 12 -11 11 -17 -5z"/>
<path d="M998 1253 c7 -3 16 -2 19 1 4 3 -2 6 -13 5 -11 0 -14 -3 -6 -6z"/>
<path d="M620 976 c0 -2 7 -7 16 -10 8 -3 12 -2 9 4 -6 10 -25 14 -25 6z"/>
<path d="M1152 1210 c-7 -11 -8 -20 -3 -20 9 0 24 30 18 36 -1 2 -8 -6 -15
-16z"/>
<path d="M5163 843 c9 -2 25 -2 35 0 9 3 1 5 -18 5 -19 0 -27 -2 -17 -5z"/>
<path d="M5160 790 c0 -16 5 -30 10 -30 6 0 10 14 10 30 0 17 -4 30 -10 30 -5
0 -10 -13 -10 -30z"/>
<path d="M5300 779 c0 -5 5 -7 10 -4 6 3 10 8 10 11 0 2 -4 4 -10 4 -5 0 -10
-5 -10 -11z"/>
<path d="M5140 700 c0 -5 5 -10 11 -10 5 0 7 5 4 10 -3 6 -8 10 -11 10 -2 0
-4 -4 -4 -10z"/>
<path d="M5308 673 c7 -3 16 -2 19 1 4 3 -2 6 -13 5 -11 0 -14 -3 -6 -6z"/>
<path d="M5950 2571 c0 -7 -6 -11 -15 -7 -11 4 -15 -2 -15 -24 0 -29 -9 -38
-24 -23 -9 9 -46 15 -46 7 0 -8 63 -88 73 -92 4 -2 12 -12 17 -22 7 -13 6 -18
-3 -16 -35 6 -55 19 -67 41 -14 27 -47 42 -61 28 -5 -5 6 -17 26 -27 19 -11
35 -23 35 -28 0 -11 -7 -10 -29 3 -11 8 -32 9 -57 4 l-39 -8 35 -10 c43 -13
40 -10 45 -36 6 -32 -4 -51 -27 -51 -19 0 -86 -65 -80 -78 4 -14 27 -7 44 13
16 18 17 18 18 3 0 -10 6 -18 13 -18 6 0 -1 -12 -18 -26 -16 -14 -24 -22 -16
-18 11 5 13 2 8 -17 l-6 -24 18 24 c11 14 28 24 45 24 19 0 26 4 22 13 -8 20
4 44 20 44 8 0 14 7 14 16 0 11 -6 13 -19 9 -11 -3 -22 -1 -26 5 -3 5 1 10 9
10 9 0 16 5 16 10 0 6 7 10 15 10 8 0 15 5 15 10 0 6 7 10 15 10 8 0 15 -5 15
-11 0 -5 4 -8 9 -4 5 3 13 1 16 -5 4 -6 -7 -23 -24 -39 -28 -26 -30 -31 -20
-60 8 -22 17 -31 32 -31 32 0 45 -12 50 -45 2 -17 5 40 5 125 1 85 -2 150 -6
143 -6 -9 -11 -7 -20 7 -11 17 -10 20 8 20 18 0 20 7 20 69 0 39 -4 73 -10 76
-5 3 -10 0 -10 -7 0 -9 -3 -9 -10 2 -7 12 -10 12 -10 1z m22 -203 c-8 -8 -9
-15 0 -25 15 -19 5 -25 -16 -10 -20 15 -12 47 12 47 12 0 13 -3 4 -12z m0
-152 c10 -18 9 -18 -15 0 -19 15 -23 22 -14 33 10 11 12 11 15 0 3 -8 9 -22
14 -33z"/>
<path d="M1935 2520 c-3 -5 -1 -10 4 -10 6 0 11 5 11 10 0 6 -2 10 -4 10 -3 0
-8 -4 -11 -10z"/>
<path d="M4411 2514 c0 -11 3 -14 6 -6 3 7 2 16 -1 19 -3 4 -6 -2 -5 -13z"/>
<path d="M1869 2486 c-12 -25 -11 -30 8 -44 12 -10 30 -32 41 -51 20 -33 20
-33 27 -10 4 13 13 27 19 31 8 5 7 8 -2 8 -7 0 -10 5 -7 10 3 6 0 10 -9 10 -8
0 -16 -5 -18 -12 -3 -7 -7 -6 -11 5 -5 13 -1 17 16 17 27 0 54 16 44 26 -4 4
-23 8 -43 9 -20 1 -40 8 -44 16 -6 9 -12 6 -21 -15z"/>
<path d="M1989 2473 c-13 -35 9 -118 31 -118 9 0 14 8 12 19 -2 10 2 22 9 26
9 6 6 15 -10 36 -13 16 -19 35 -16 46 10 29 -14 21 -26 -9z"/>
<path d="M1442 2451 c-12 -7 -22 -23 -58 -92 -8 -14 -26 -39 -41 -55 -15 -16
-27 -32 -25 -36 1 -4 -4 -5 -12 -2 -8 3 -17 1 -20 -4 -9 -16 25 -24 43 -10 13
10 14 10 4 -2 -7 -8 -13 -18 -13 -22 0 -11 41 12 57 32 10 12 12 12 13 1 0 -8
15 0 40 20 21 19 51 43 66 55 26 19 26 21 11 50 -9 16 -16 25 -17 21 0 -5 4
-17 10 -27 7 -14 6 -20 -6 -24 -22 -8 -44 11 -43 38 1 19 2 18 8 -4 6 -22 8
-23 14 -6 4 10 3 24 -2 30 -5 6 -10 19 -12 28 -3 12 -8 15 -17 9z m8 -101 c0
-13 -11 -13 -30 0 -12 8 -11 10 8 10 12 0 22 -4 22 -10z m-72 -62 c-2 -6 -10
-13 -16 -14 -7 -1 -8 0 -2 3 5 2 8 9 4 14 -3 5 0 9 6 9 7 0 10 -5 8 -12z"/>
<path d="M2046 2447 c3 -10 9 -15 12 -12 3 3 0 11 -7 18 -10 9 -11 8 -5 -6z"/>
<path d="M4526 2415 c44 -40 118 -79 136 -72 7 2 -9 15 -37 30 -27 14 -65 37
-84 51 -50 38 -60 32 -15 -9z"/>
<path d="M1526 2403 c-4 -9 -2 -21 4 -27 7 -7 10 -2 10 17 0 31 -5 34 -14 10z"/>
<path d="M1780 2332 c0 -5 12 -14 27 -21 28 -13 28 -13 9 8 -20 22 -36 27 -36
13z"/>
<path d="M4672 2308 c5 -15 28 -23 28 -10 0 5 -7 13 -16 16 -10 4 -14 1 -12
-6z"/>
<path d="M4730 2224 c0 -8 49 -47 69 -56 14 -6 14 -7 1 -7 -13 -1 -13 -2 0
-11 19 -12 33 -13 26 -1 -4 5 3 7 15 4 19 -5 20 -4 9 16 -16 30 -120 78 -120
55z"/>
<path d="M2900 2190 c-12 -7 -12 -12 -3 -21 10 -10 14 -9 19 5 8 22 2 27 -16
16z"/>
<path d="M1183 2047 c-1 -12 3 -17 13 -13 8 3 14 1 14 -4 0 -14 -39 -32 -56
-26 -8 3 -14 -1 -14 -10 0 -9 6 -14 13 -11 6 2 21 0 31 -6 16 -8 18 -6 13 7
-4 9 -2 16 3 16 19 0 25 3 37 19 8 10 12 12 13 4 0 -19 20 -16 20 3 0 12 -7
15 -25 12 -19 -4 -23 -2 -15 7 8 10 3 14 -18 17 -22 3 -28 0 -29 -15z"/>
<path d="M1123 1959 c-1 -10 2 -19 8 -19 11 0 12 27 1 34 -4 2 -9 -4 -9 -15z"/>
<path d="M4450 1956 c0 -22 3 -27 11 -19 8 8 8 16 0 30 -9 16 -10 14 -11 -11z"/>
<path d="M1460 1950 c0 -11 2 -20 5 -20 2 0 9 9 15 20 9 16 8 20 -5 20 -8 0
-15 -9 -15 -20z"/>
<path d="M1396 1944 c-11 -8 -16 -14 -10 -14 13 0 39 18 34 24 -3 2 -14 -2
-24 -10z"/>
<path d="M3015 1940 c-8 -13 4 -32 16 -25 12 8 12 35 0 35 -6 0 -13 -4 -16
-10z"/>
<path d="M4220 1939 c0 -5 5 -7 10 -4 6 3 10 8 10 11 0 2 -4 4 -10 4 -5 0 -10
-5 -10 -11z"/>
<path d="M3047 1926 c-4 -10 -5 -21 -2 -24 9 -9 17 6 13 25 -3 17 -4 17 -11
-1z"/>
<path d="M1468 1909 c-21 -8 -25 -15 -21 -32 6 -27 6 -33 3 -129 -2 -58 -6
-78 -16 -78 -8 0 -14 -4 -14 -9 0 -5 -9 -7 -20 -4 -11 3 -20 0 -20 -6 0 -5 7
-8 15 -5 9 4 15 1 15 -7 0 -10 3 -10 11 -2 6 6 26 9 45 6 24 -4 34 -2 34 7 0
9 12 11 39 7 32 -4 40 -2 44 14 3 10 2 18 -2 18 -17 -2 -50 14 -45 22 3 5 9 7
14 4 5 -3 11 -1 15 5 10 15 23 12 28 -7 4 -14 5 -13 6 4 0 12 -5 24 -11 26 -7
3 -3 6 10 6 18 1 21 4 14 19 -5 9 -8 22 -5 28 2 6 -3 17 -11 23 -12 10 -19 10
-36 -2 -20 -14 -20 -15 -2 -19 18 -5 21 -18 13 -60 0 -5 -10 -8 -22 -8 -17 0
-20 4 -15 24 3 14 1 26 -4 28 -6 2 -12 14 -12 28 -1 14 -7 28 -13 33 -6 4 -5
10 4 16 8 5 11 16 8 24 -3 8 0 20 6 26 14 14 -16 14 -55 0z"/>
<path d="M4197 1913 c-4 -3 -7 -30 -7 -60 0 -33 -4 -53 -12 -53 -6 0 -3 -9 7
-20 17 -19 17 -20 -1 -20 -18 -1 -18 -1 -1 -11 19 -11 32 -6 32 14 0 7 12 13
27 15 31 4 48 32 19 32 -10 0 -22 7 -25 16 -7 18 2 63 17 82 7 9 2 12 -20 12
-16 0 -33 -3 -36 -7z m10 -75 c-3 -8 -6 -5 -6 6 -1 11 2 17 5 13 3 -3 4 -12 1
-19z"/>
<path d="M1100 1890 c0 -5 5 -10 11 -10 5 0 7 5 4 10 -3 6 -8 10 -11 10 -2 0
-4 -4 -4 -10z"/>
<path d="M4452 1844 c2 -35 8 -59 16 -62 7 -2 12 6 12 21 0 14 -6 28 -12 31
-7 3 3 5 22 3 32 -2 35 1 32 23 -3 29 0 26 -40 35 l-33 7 3 -58z m58 21 c0 -9
-6 -12 -15 -9 -8 4 -15 10 -15 15 0 5 7 9 15 9 8 0 15 -7 15 -15z"/>
<path d="M4250 1861 c0 -17 2 -31 4 -31 8 0 13 51 5 56 -5 3 -9 -9 -9 -25z"/>
<path d="M4398 1866 c-3 -14 -2 -42 2 -63 7 -34 8 -32 9 25 1 65 -3 79 -11 38z"/>
<path d="M2560 1870 c-13 -8 -12 -10 3 -10 9 0 17 5 17 10 0 12 -1 12 -20 0z"/>
<path d="M1396 1816 c-9 -19 -16 -55 -16 -80 0 -39 3 -46 20 -46 28 0 41 33
38 97 -4 66 -19 77 -42 29z"/>
<path d="M1865 1840 c5 -9 1 -10 -14 -5 -13 4 -21 2 -21 -5 0 -6 -4 -8 -10 -5
-5 3 -12 -6 -16 -20 -3 -14 -11 -25 -16 -25 -6 0 -8 -9 -5 -20 3 -11 1 -23 -4
-26 -6 -3 -7 -20 -4 -37 4 -18 9 -44 12 -59 5 -26 33 -41 33 -18 0 11 39 -7
53 -25 6 -6 10 -6 14 2 3 8 14 11 30 7 23 -6 24 -5 11 15 -11 18 -11 23 0 30
8 4 13 10 12 12 -1 2 1 20 4 39 4 21 0 51 -8 75 -8 22 -15 36 -16 30 0 -5 -5
-2 -11 7 -5 10 -19 23 -31 29 -16 8 -19 8 -13 -1z m25 -46 c0 -8 4 -14 10 -14
5 0 8 -23 6 -52 -2 -29 1 -58 6 -64 12 -17 -19 -26 -43 -14 -11 6 -25 8 -31 4
-6 -4 -8 -3 -5 3 4 6 0 16 -8 23 -21 18 -11 100 16 122 22 19 49 14 49 -8z
m40 -104 c0 -5 -5 -10 -11 -10 -5 0 -7 5 -4 10 3 6 8 10 11 10 2 0 4 -4 4 -10z"/>
<path d="M3480 1820 c0 -5 5 -10 11 -10 5 0 7 5 4 10 -3 6 -8 10 -11 10 -2 0
-4 -4 -4 -10z"/>
<path d="M4512 1795 c0 -16 2 -22 5 -12 2 9 2 23 0 30 -3 6 -5 -1 -5 -18z"/>
<path d="M3465 1792 c-13 -9 -17 -52 -5 -52 5 0 8 -9 7 -20 -1 -11 -5 -20 -9
-20 -4 0 -8 -7 -8 -16 0 -11 6 -14 23 -8 29 8 35 16 20 21 -7 3 -13 17 -13 31
1 26 1 26 15 8 15 -19 15 -19 15 2 0 12 -4 22 -10 22 -5 0 -10 5 -10 11 0 6 7
9 15 5 8 -3 15 -1 15 4 0 6 -4 10 -9 10 -5 0 -15 2 -23 5 -7 3 -18 1 -23 -3z"/>
<path d="M5912 1766 c6 -28 -10 -60 -19 -38 -6 16 -23 6 -23 -15 0 -9 6 -13
14 -10 8 3 19 0 24 -6 14 -18 11 -47 -5 -47 -7 0 -13 -5 -13 -11 0 -6 -9 -9
-19 -6 -14 3 -18 1 -14 -9 3 -8 9 -11 14 -8 6 3 17 0 25 -7 8 -6 17 -9 21 -6
3 4 12 2 20 -5 7 -6 16 -8 20 -5 3 4 12 2 20 -4 11 -9 13 3 12 72 -1 111 -6
123 -48 127 -31 2 -33 0 -29 -22z m43 -6 c8 0 16 -4 19 -9 3 -4 -6 -6 -19 -3
-15 2 -25 11 -24 21 0 10 2 11 6 4 2 -7 11 -13 18 -13z m5 -134 c0 -3 -4 -8
-10 -11 -5 -3 -10 -1 -10 4 0 6 5 11 10 11 6 0 10 -2 10 -4z"/>
<path d="M4484 1765 c-5 -11 -14 -27 -22 -35 -10 -10 -11 -15 -3 -18 6 -2 11
-11 11 -21 0 -11 9 -17 25 -19 22 -1 25 2 25 28 0 17 -5 30 -11 30 -6 0 -9 6
-6 13 3 8 1 20 -3 28 -7 11 -10 9 -16 -6z m16 -65 c0 -5 -5 -10 -11 -10 -5 0
-7 5 -4 10 3 6 8 10 11 10 2 0 4 -4 4 -10z"/>
<path d="M4270 1746 c0 -26 -24 -35 -66 -26 -33 8 -48 6 -77 -9 -29 -15 -34
-21 -24 -30 10 -8 19 -6 35 9 12 11 27 20 34 20 20 0 59 -30 53 -40 -3 -5 -1
-11 5 -15 5 -3 10 2 10 13 0 10 8 28 18 40 l18 21 32 -25 c43 -34 41 -15 -3
25 -22 19 -35 26 -35 17z"/>
<path d="M4383 1723 c-17 -6 -16 -28 1 -45 8 -8 16 -23 19 -34 2 -10 5 5 6 34
1 51 -2 55 -26 45z"/>
<path d="M4532 1705 c0 -16 2 -22 5 -12 2 9 2 23 0 30 -3 6 -5 -1 -5 -18z"/>
<path d="M230 1691 c-6 -12 -7 -21 -1 -21 10 0 24 30 17 37 -2 3 -9 -5 -16
-16z"/>
<path d="M4550 1693 c0 -13 5 -23 10 -23 13 0 13 11 0 30 -8 12 -10 11 -10 -7z"/>
<path d="M4280 1680 c0 -5 5 -10 11 -10 5 0 7 5 4 10 -3 6 -8 10 -11 10 -2 0
-4 -4 -4 -10z"/>
<path d="M4087 1645 c5 -34 5 -35 -27 -35 -25 0 -31 -3 -26 -16 3 -9 6 -27 6
-42 0 -25 1 -25 14 -7 8 11 13 22 11 25 -2 3 5 7 16 7 11 1 17 -3 13 -9 -4 -6
0 -14 7 -19 11 -7 10 -9 -5 -9 -14 0 -17 -6 -14 -25 3 -13 1 -22 -4 -19 -13 8
-48 -6 -48 -20 0 -8 10 -11 30 -8 18 3 30 0 30 -7 0 -6 -10 -11 -22 -12 l-23
0 23 -9 c24 -10 28 -33 11 -77 l-11 -28 -19 24 c-11 14 -18 33 -16 42 3 13 0
16 -11 12 -12 -5 -14 -1 -10 15 4 12 2 22 -3 22 -5 0 -9 -12 -9 -26 0 -23 -3
-25 -30 -19 -37 8 -40 -7 -5 -23 34 -16 42 -40 19 -57 -18 -13 -17 -14 14 -15
17 0 32 3 32 8 0 4 11 7 25 7 14 0 25 -4 25 -8 0 -4 9 -3 20 3 16 9 20 8 20
-7 0 -15 1 -15 13 2 17 22 76 28 84 8 3 -7 13 -13 22 -13 14 0 14 2 1 10 -12
8 -11 10 8 10 12 0 22 5 22 10 0 6 6 5 14 -2 8 -7 12 -17 9 -21 -3 -5 4 -3 16
5 25 15 26 24 6 44 -8 9 -15 11 -15 6 0 -5 -11 -7 -25 -4 -22 4 -25 9 -25 48
0 41 1 43 33 47 l32 4 -32 1 c-57 3 -40 19 25 24 27 3 3 23 -34 29 -21 3 -31
7 -21 8 17 1 17 3 3 23 -20 28 -20 48 -3 48 8 0 22 -16 33 -35 18 -34 19 -35
25 -13 3 13 2 35 -2 51 -4 15 -4 27 2 27 5 0 9 -4 9 -10 0 -5 7 -6 17 -3 11 4
14 3 9 -5 -8 -14 3 -16 21 -4 9 6 7 11 -6 19 -20 13 -130 11 -213 -2 l-48 -8
0 32 c0 17 -4 31 -9 31 -6 0 -7 -16 -4 -35z m130 -67 c-2 -12 -9 -24 -15 -26
-7 -2 -12 -16 -12 -32 0 -23 -4 -27 -25 -27 -15 0 -25 5 -25 13 0 8 -5 14 -10
14 -6 0 -9 14 -8 31 3 34 22 47 70 48 23 1 27 -3 25 -21z m-27 -157 c0 -33 -4
-63 -10 -66 -5 -3 -10 3 -10 14 0 12 -7 21 -15 21 -11 0 -15 12 -15 45 0 41 2
45 25 45 24 0 25 -3 25 -59z m47 -53 c-3 -8 -6 -5 -6 6 -1 11 2 17 5 13 3 -3
4 -12 1 -19z"/>
<path d="M4160 1669 c0 -5 5 -7 10 -4 6 3 10 8 10 11 0 2 -4 4 -10 4 -5 0 -10
-5 -10 -11z"/>
<path d="M4470 1650 c0 -5 5 -10 11 -10 5 0 7 5 4 10 -3 6 -8 10 -11 10 -2 0
-4 -4 -4 -10z"/>
<path d="M366 1635 c6 -14 -6 -20 -29 -16 -5 1 -5 -3 -2 -9 5 -8 13 -7 28 3
26 17 33 37 13 37 -10 0 -13 -6 -10 -15z"/>
<path d="M4500 1640 c0 -5 -9 -10 -20 -10 -18 0 -20 -7 -20 -70 0 -60 2 -70
16 -68 10 2 19 -3 22 -11 3 -9 -1 -11 -17 -6 -27 8 -28 -14 -1 -43 25 -26 29
-102 5 -102 -18 0 -19 -12 -3 -28 14 -14 32 -16 23 -3 -3 5 -1 12 5 16 5 3 10
-1 10 -9 0 -19 9 -20 30 -5 13 9 12 10 -2 5 -10 -3 -18 -1 -18 4 0 5 17 11 38
13 l37 4 -36 1 c-36 2 -37 3 -41 45 -6 60 1 77 36 93 l31 13 -37 1 -38 0 0 46
c0 25 4 43 9 40 5 -3 11 1 15 9 3 9 0 15 -10 15 -8 0 -12 5 -9 10 3 6 22 10
41 10 19 0 34 5 34 10 0 6 -9 10 -20 10 -11 0 -20 5 -20 10 0 6 -5 10 -11 10
-5 0 -7 -4 -4 -10 8 -13 -1 -13 -26 0 -13 7 -19 7 -19 0z m0 -37 c0 -5 -5 -15
-10 -23 -8 -12 -10 -11 -10 8 0 12 5 22 10 22 6 0 10 -3 10 -7z"/>
<path d="M3500 1636 c0 -2 8 -10 18 -17 15 -13 16 -12 3 4 -13 16 -21 21 -21
13z"/>
<path d="M150 1610 c0 -5 5 -10 11 -10 5 0 7 5 4 10 -3 6 -8 10 -11 10 -2 0
-4 -4 -4 -10z"/>
<path d="M1395 1610 c-3 -5 -2 -10 4 -10 5 0 13 5 16 10 3 6 2 10 -4 10 -5 0
-13 -4 -16 -10z"/>
<path d="M4390 1613 c0 -5 5 -15 10 -23 8 -12 10 -11 10 8 0 12 -4 22 -10 22
-5 0 -10 -3 -10 -7z"/>
<path d="M4617 1604 c2 -6 15 -17 29 -24 24 -13 34 -50 13 -50 -6 0 -9 -7 -5
-15 3 -9 0 -15 -9 -15 -14 0 -16 32 -3 46 9 8 -2 34 -13 34 -5 0 -9 -20 -9
-45 0 -37 3 -45 18 -45 25 0 42 -19 42 -47 0 -17 6 -23 23 -23 21 1 21 1 4 14
-14 11 -15 15 -5 19 9 4 10 6 1 6 -7 1 -10 8 -6 18 4 10 2 14 -5 9 -6 -3 -13
-2 -17 4 -3 5 1 10 10 10 21 0 31 30 14 41 -10 6 -5 9 16 9 27 0 28 1 13 16
-8 9 -28 17 -42 17 -15 1 -29 9 -32 19 -3 9 -13 16 -23 15 -11 0 -17 -6 -14
-13z"/>
<path d="M4560 1586 c0 -9 5 -16 10 -16 6 0 10 4 10 9 0 6 -4 13 -10 16 -5 3
-10 -1 -10 -9z"/>
<path d="M393 1580 c-13 -5 -23 -14 -23 -20 0 -6 5 -8 10 -5 6 3 22 13 38 21
29 15 11 18 -25 4z"/>
<path d="M1900 1570 c0 -5 5 -10 11 -10 5 0 7 5 4 10 -3 6 -8 10 -11 10 -2 0
-4 -4 -4 -10z"/>
<path d="M3922 1533 c-2 -24 -7 -33 -19 -33 -10 -1 -29 -8 -43 -16 -17 -10
-18 -13 -5 -8 49 17 65 17 65 -1 0 -13 6 -16 21 -12 13 3 22 0 26 -10 5 -14 7
-13 15 0 5 10 15 14 26 10 14 -5 15 -3 5 7 -10 10 -15 11 -27 1 -10 -8 -16 -9
-21 -1 -3 5 0 10 7 11 7 0 1 5 -14 10 -20 8 -28 19 -31 42 l-4 32 -1 -32z"/>
<path d="M5861 1514 c0 -11 3 -14 6 -6 3 7 2 16 -1 19 -3 4 -6 -2 -5 -13z"/>
<path d="M4340 1425 c0 -57 4 -95 10 -95 6 0 10 6 10 13 0 8 4 7 10 -3 8 -13
10 -12 10 3 0 9 -5 17 -11 17 -7 0 -10 27 -7 80 2 59 0 80 -9 80 -10 0 -13
-25 -13 -95z"/>
<path d="M1870 1498 c0 -7 5 -20 10 -28 8 -12 10 -11 10 7 0 12 -4 25 -10 28
-5 3 -10 0 -10 -7z"/>
<path d="M4390 1420 c0 -53 4 -90 10 -90 6 0 10 37 10 90 0 53 -4 90 -10 90
-6 0 -10 -37 -10 -90z"/>
<path d="M1656 1492 c-2 -4 0 -14 6 -22 8 -12 9 -12 5 2 -3 9 -1 19 6 22 9 3
9 5 0 5 -6 1 -14 -3 -17 -7z"/>
<path d="M3665 1490 c-3 -5 -1 -10 4 -10 6 0 11 5 11 10 0 6 -2 10 -4 10 -3 0
-8 -4 -11 -10z"/>
<path d="M1832 1482 c-18 -12 -4 -42 16 -35 14 5 15 3 5 -7 -10 -11 -17 -10
-37 4 -34 22 -38 21 -61 -13 -10 -16 -23 -27 -28 -24 -5 3 -6 -4 -3 -15 4 -13
1 -22 -8 -25 -14 -5 -13 -10 2 -39 9 -18 18 -34 19 -36 0 -2 7 -4 15 -6 7 -1
19 -5 26 -9 6 -5 16 -6 21 -3 5 3 14 -1 21 -9 14 -17 45 -21 34 -4 -9 15 38 0
48 -15 5 -7 8 -7 8 3 0 8 7 11 20 8 11 -3 20 -1 20 4 0 5 9 9 20 9 11 0 20 5
20 10 0 15 18 12 22 -4 2 -10 9 -11 27 -5 19 7 21 12 11 24 -6 7 -18 11 -26 8
-9 -3 -14 0 -12 8 2 10 -5 13 -24 11 -19 -2 -28 3 -32 16 -4 11 -18 24 -31 30
-18 8 -24 18 -23 37 1 14 6 25 10 25 4 0 7 -10 5 -22 -1 -14 4 -23 16 -26 11
-2 17 3 18 15 0 16 1 16 9 -2 7 -16 9 -17 9 -3 1 9 -7 22 -16 27 -17 10 -17
10 0 11 23 0 22 12 -3 28 -16 10 -20 10 -20 -1 0 -23 -44 -17 -65 8 -13 16
-24 22 -33 17z m-8 -92 c5 -27 10 -30 41 -30 27 0 35 -4 35 -17 0 -14 2 -15 9
-4 5 7 11 9 14 4 3 -5 -2 -16 -12 -25 -16 -14 -19 -13 -30 3 -12 21 -46 27
-36 7 4 -7 0 -5 -8 5 -8 9 -21 17 -30 17 -9 0 -17 10 -19 23 -2 12 -9 21 -16
20 -6 -2 -12 2 -12 8 0 7 10 9 28 4 22 -5 25 -4 15 6 -18 18 -16 34 1 20 7 -6
16 -25 20 -41z m-50 -18 c3 -5 -1 -9 -9 -9 -8 0 -15 4 -15 9 0 4 4 8 9 8 6 0
12 -4 15 -8z m209 -77 c-3 -9 -8 -14 -10 -11 -3 3 -2 9 2 15 9 16 15 13 8 -4z
m-36 -11 c-3 -3 -12 -4 -19 -1 -8 3 -5 6 6 6 11 1 17 -2 13 -5z"/>
<path d="M350 1469 c0 -5 5 -7 10 -4 6 3 10 8 10 11 0 2 -4 4 -10 4 -5 0 -10
-5 -10 -11z"/>
<path d="M1905 1470 c-3 -5 -1 -10 4 -10 6 0 11 5 11 10 0 6 -2 10 -4 10 -3 0
-8 -4 -11 -10z"/>
<path d="M3750 1470 c0 -5 5 -10 10 -10 6 0 10 5 10 10 0 6 -4 10 -10 10 -5 0
-10 -4 -10 -10z"/>
<path d="M3665 1450 c-5 -14 -14 -20 -28 -18 -18 3 -22 -3 -24 -32 l-2 -35 24
27 c22 26 55 30 55 8 0 -5 9 -8 20 -7 14 1 18 6 14 19 -3 10 -1 18 4 18 6 0
12 -5 14 -11 2 -6 12 -7 27 -1 20 7 21 10 7 21 -9 8 -26 11 -41 7 -19 -5 -23
-3 -19 9 5 11 -1 15 -19 15 -17 0 -28 -7 -32 -20z m35 -15 c0 -8 -7 -15 -15
-15 -9 0 -12 6 -9 15 4 8 10 15 15 15 5 0 9 -7 9 -15z"/>
<path d="M4625 1450 c3 -5 8 -10 11 -10 2 0 4 5 4 10 0 6 -5 10 -11 10 -5 0
-7 -4 -4 -10z"/>
<path d="M1650 1440 c0 -5 5 -10 10 -10 6 0 10 5 10 10 0 6 -4 10 -10 10 -5 0
-10 -4 -10 -10z"/>
<path d="M2030 1436 c14 -9 39 -15 55 -15 40 0 15 14 -40 23 -39 6 -39 6 -15
-8z"/>
<path d="M4553 1443 c9 -2 23 -2 30 0 6 3 -1 5 -18 5 -16 0 -22 -2 -12 -5z"/>
<path d="M3967 1419 c7 -7 15 -10 18 -7 3 3 -2 9 -12 12 -14 6 -15 5 -6 -5z"/>
<path d="M5293 1413 c-7 -3 -13 -17 -12 -31 0 -16 3 -21 6 -12 4 8 13 20 21
26 16 12 5 24 -15 17z"/>
<path d="M1985 1402 c-10 -10 -5 -52 6 -52 5 0 7 5 3 12 -5 7 -2 9 8 6 8 -4
20 2 27 14 11 17 10 18 -8 9 -14 -8 -22 -8 -27 1 -4 6 -3 8 4 4 6 -3 13 -3 16
2 5 9 -20 12 -29 4z"/>
<path d="M4698 1393 c7 -3 16 -2 19 1 4 3 -2 6 -13 5 -11 0 -14 -3 -6 -6z"/>
<path d="M2033 1353 c-17 -6 -17 -20 0 -20 8 0 14 6 14 14 0 7 -1 13 -1 12 -1
0 -7 -3 -13 -6z"/>
<path d="M5284 1342 c5 -8 76 -4 76 4 0 2 -18 4 -41 4 -22 0 -38 -4 -35 -8z"/>
<path d="M4910 1314 c0 -8 5 -12 10 -9 6 3 10 10 10 16 0 5 -4 9 -10 9 -5 0
-10 -7 -10 -16z"/>
<path d="M4690 1289 c0 -5 5 -7 10 -4 6 3 10 8 10 11 0 2 -4 4 -10 4 -5 0 -10
-5 -10 -11z"/>
<path d="M4863 1283 c-7 -2 -13 -11 -13 -19 0 -12 4 -12 30 1 17 9 30 18 30
20 0 6 -31 5 -47 -2z"/>
<path d="M4950 1283 c0 -9 44 -73 50 -73 3 0 6 9 6 20 0 13 -7 20 -18 20 -11
0 -18 7 -18 20 0 11 -4 20 -10 20 -5 0 -10 -3 -10 -7z"/>
<path d="M2050 1265 c-8 -9 -8 -15 -2 -15 6 0 18 -3 28 -7 14 -5 16 -3 10 13
-6 15 -3 15 18 -5 30 -29 35 -20 6 9 -24 24 -43 25 -60 5z"/>
<path d="M3979 1278 c-6 -26 -4 -108 2 -108 5 0 9 25 9 55 0 30 -2 55 -5 55
-3 0 -5 -1 -6 -2z"/>
<path d="M1738 1253 c7 -3 16 -2 19 1 4 3 -2 6 -13 5 -11 0 -14 -3 -6 -6z"/>
<path d="M4228 1253 c7 -3 16 -2 19 1 4 3 -2 6 -13 5 -11 0 -14 -3 -6 -6z"/>
<path d="M1435 1240 c3 -5 8 -10 11 -10 2 0 4 5 4 10 0 6 -5 10 -11 10 -5 0
-7 -4 -4 -10z"/>
<path d="M1533 1243 c4 -3 33 -7 64 -9 54 -2 55 -2 18 6 -49 11 -91 12 -82 3z"/>
<path d="M1855 1210 l-40 -7 43 -2 c23 0 42 4 42 9 0 6 -1 9 -2 9 -2 -1 -21
-5 -43 -9z"/>
<path d="M1990 1213 c8 -3 23 -10 33 -15 12 -6 17 -5 17 7 0 10 -10 15 -32 14
-18 0 -26 -3 -18 -6z"/>
<path d="M2110 1210 c-8 -5 -10 -10 -5 -10 6 0 3 -5 -5 -10 -11 -8 -7 -9 14
-4 18 4 31 2 36 -6 4 -7 14 -10 21 -8 9 4 5 10 -13 18 -15 7 -25 17 -22 21 7
12 -7 11 -26 -1z"/>
<path d="M4124 1179 c-3 -6 1 -18 10 -27 14 -14 18 -15 25 -3 5 8 7 20 4 28
-6 16 -29 17 -39 2z"/>
<path d="M4932 1138 c2 -28 8 -53 13 -55 6 -2 9 18 7 52 -2 30 -8 55 -13 55
-6 0 -9 -23 -7 -52z"/>
<path d="M2025 1170 c3 -5 13 -10 21 -10 8 0 12 5 9 10 -3 6 -13 10 -21 10 -8
0 -12 -4 -9 -10z"/>
<path d="M1872 1080 c0 -17 8 -50 18 -73 11 -23 20 -35 20 -27 0 10 3 11 8 4
8 -13 72 -24 72 -12 0 4 -6 8 -13 8 -43 0 -106 63 -94 94 3 7 2 18 -2 25 -5 7
-8 0 -9 -19z"/>
<path d="M4098 1093 c12 -2 32 -2 45 0 12 2 2 4 -23 4 -25 0 -35 -2 -22 -4z"/>
<path d="M4223 1093 c9 -2 23 -2 30 0 6 3 -1 5 -18 5 -16 0 -22 -2 -12 -5z"/>
<path d="M4185 1064 c24 -8 55 -12 78 -8 64 10 40 24 -40 24 l-78 -1 40 -15z"/>
<path d="M1920 1058 c0 -17 27 -44 35 -36 3 3 -4 15 -15 28 -15 17 -20 19 -20
8z"/>
<path d="M4001 1054 c0 -11 3 -14 6 -6 3 7 2 16 -1 19 -3 4 -6 -2 -5 -13z"/>
<path d="M4557 1054 c-4 -4 -7 -17 -6 -28 0 -21 1 -21 9 -1 7 16 9 12 10 -20
0 -33 3 -37 11 -22 20 33 -1 94 -24 71z"/>
<path d="M4496 1025 c-3 -9 -10 -13 -16 -10 -16 10 -12 -22 6 -39 10 -10 24
-14 40 -10 13 3 24 2 24 -3 0 -5 -6 -10 -12 -10 -56 -2 -191 -13 -194 -16 -2
-1 -1 -13 3 -25 5 -22 43 -32 43 -12 0 5 -7 6 -17 3 -10 -4 -14 -2 -10 4 11
17 50 24 43 8 -2 -7 2 -19 10 -25 11 -10 14 -8 15 11 0 13 3 18 6 12 2 -7 11
-13 18 -13 8 0 18 6 22 13 4 6 22 12 40 12 17 0 29 -4 26 -8 -3 -5 4 -4 16 2
12 7 48 10 88 7 64 -5 65 -5 16 3 -83 14 -103 20 -103 35 0 17 -38 28 -46 14
-4 -7 -10 -4 -16 6 -12 21 1 44 13 25 5 -8 9 -9 9 -4 0 6 -4 16 -9 23 -7 11
-9 10 -15 -3z"/>
<path d="M4674 1006 c13 -42 26 -47 26 -11 0 14 1 28 3 33 1 4 -8 8 -19 10
-20 3 -21 1 -10 -32z"/>
<path d="M1520 1002 c0 -12 19 -26 26 -19 2 2 -2 10 -11 17 -9 8 -15 8 -15 2z"/>
<path d="M1490 980 c0 -11 7 -20 15 -20 13 0 14 4 5 20 -6 11 -13 20 -15 20
-3 0 -5 -9 -5 -20z"/>
<path d="M1988 993 c7 -3 16 -2 19 1 4 3 -2 6 -13 5 -11 0 -14 -3 -6 -6z"/>
<path d="M2080 990 c58 -8 166 -13 159 -6 -2 2 -51 6 -109 9 -74 4 -89 3 -50
-3z"/>
<path d="M1645 938 c3 -31 9 -67 14 -80 7 -16 8 -7 4 32 -9 78 -24 121 -18 48z"/>
<path d="M1675 983 c11 -3 23 -10 27 -17 6 -8 8 -8 8 1 0 6 8 14 18 16 9 3 -3
5 -28 5 -25 0 -36 -3 -25 -5z"/>
<path d="M5262 976 c13 -14 28 -12 28 5 0 5 -9 9 -20 9 -17 0 -19 -2 -8 -14z"/>
<path d="M1772 925 c0 -16 2 -22 5 -12 2 9 2 23 0 30 -3 6 -5 -1 -5 -18z"/>
<path d="M2071 904 c1 -16 5 -40 9 -54 6 -17 7 -9 3 25 -6 56 -14 74 -12 29z"/>
<path d="M1700 899 c0 -11 4 -18 10 -14 5 3 7 12 3 20 -7 21 -13 19 -13 -6z"/>
<path d="M1255 889 c-4 -6 -5 -12 -2 -15 2 -3 7 2 10 11 7 17 1 20 -8 4z"/>
<path d="M1270 855 c-7 -8 -17 -12 -23 -8 -5 3 -7 1 -3 -5 3 -6 -4 -18 -16
-26 -12 -9 -19 -19 -15 -23 4 -3 13 -1 19 5 8 8 17 5 34 -13 13 -14 32 -25 44
-25 24 0 26 9 3 25 -22 16 -9 35 20 27 21 -5 21 -5 5 12 -14 13 -22 15 -37 6
-29 -15 -32 -13 -21 15 11 29 8 32 -10 10z"/>
<path d="M4225 850 c3 -5 8 -10 11 -10 2 0 4 5 4 10 0 6 -5 10 -11 10 -5 0 -7
-4 -4 -10z"/>
<path d="M4502 830 c0 -14 2 -19 5 -12 2 6 2 18 0 25 -3 6 -5 1 -5 -13z"/>
<path d="M1728 833 c12 -2 32 -2 45 0 12 2 2 4 -23 4 -25 0 -35 -2 -22 -4z"/>
<path d="M1445 810 c-19 -8 -19 -9 3 -9 12 -1 22 4 22 9 0 6 -1 10 -2 9 -2 0
-12 -4 -23 -9z"/>
<path d="M4676 794 c-5 -14 -4 -15 9 -4 17 14 19 20 6 20 -5 0 -12 -7 -15 -16z"/>
<path d="M4735 800 c-3 -5 -1 -10 4 -10 6 0 11 5 11 10 0 6 -2 10 -4 10 -3 0
-8 -4 -11 -10z"/>
<path d="M1388 789 c-2 -5 -13 -11 -25 -12 -37 -2 -14 -17 27 -17 47 0 58 13
25 28 -15 7 -25 7 -27 1z"/>
<path d="M1450 778 c0 -4 7 -8 15 -8 8 0 15 4 15 8 0 5 -7 9 -15 9 -8 0 -15
-4 -15 -9z"/>
<path d="M4418 783 c12 -2 30 -2 40 0 9 3 -1 5 -23 4 -22 0 -30 -2 -17 -4z"/>
<path d="M4480 776 c0 -29 13 -76 21 -76 5 0 9 20 9 45 0 33 -4 45 -15 45 -8
0 -15 -6 -15 -14z"/>
<path d="M4208 703 c7 -3 16 -2 19 1 4 3 -2 6 -13 5 -11 0 -14 -3 -6 -6z"/>
<path d="M4345 700 c-3 -5 1 -10 9 -10 9 0 16 5 16 10 0 6 -4 10 -9 10 -6 0
-13 -4 -16 -10z"/>
<path d="M2660 683 c0 -16 6 -23 19 -23 27 0 34 15 16 30 -12 10 -15 10 -15
-1 0 -11 -2 -11 -10 1 -8 12 -10 11 -10 -7z"/>
<path d="M45 670 c-3 -5 1 -10 9 -10 9 0 16 5 16 10 0 6 -4 10 -9 10 -6 0 -13
-4 -16 -10z"/>
<path d="M120 671 c0 -5 7 -12 16 -15 24 -9 28 -7 14 9 -14 17 -30 20 -30 6z"/>
<path d="M755 650 c3 -5 10 -10 16 -10 5 0 9 5 9 10 0 6 -7 10 -16 10 -8 0
-12 -4 -9 -10z"/>
<path d="M1845 650 c3 -5 8 -10 11 -10 2 0 4 5 4 10 0 6 -5 10 -11 10 -5 0 -7
-4 -4 -10z"/>
<path d="M1880 644 c0 -8 5 -12 10 -9 6 3 10 2 10 -4 0 -5 17 -8 40 -6 21 2
42 0 45 -4 6 -11 45 -2 45 10 0 4 -9 13 -20 19 -13 7 -20 7 -20 1 0 -6 -6 -8
-14 -5 -8 3 -17 1 -21 -5 -4 -7 -17 -6 -41 4 -30 12 -34 12 -34 -1z"/>
<path d="M620 640 c0 -5 7 -7 15 -4 8 4 15 8 15 10 0 2 -7 4 -15 4 -8 0 -15
-4 -15 -10z"/>
<path d="M2310 641 c0 -16 19 -23 40 -16 30 10 24 25 -10 25 -16 0 -30 -4 -30
-9z"/>
<path d="M2606 641 c-3 -5 1 -14 9 -21 13 -10 15 -9 15 9 0 21 -14 28 -24 12z"/>
<path d="M148 633 c7 -3 16 -2 19 1 4 3 -2 6 -13 5 -11 0 -14 -3 -6 -6z"/>
<path d="M700 629 c0 -5 5 -7 10 -4 6 3 10 8 10 11 0 2 -4 4 -10 4 -5 0 -10
-5 -10 -11z"/>
<path d="M2260 629 c0 -5 5 -7 10 -4 6 3 10 8 10 11 0 2 -4 4 -10 4 -5 0 -10
-5 -10 -11z"/>
<path d="M2380 630 c0 -5 7 -10 15 -10 8 0 15 5 15 10 0 6 -7 10 -15 10 -8 0
-15 -4 -15 -10z"/>
<path d="M2915 630 c3 -5 13 -10 21 -10 8 0 12 5 9 10 -3 6 -13 10 -21 10 -8
0 -12 -4 -9 -10z"/>
<path d="M2980 630 c0 -5 5 -10 11 -10 5 0 7 5 4 10 -3 6 -8 10 -11 10 -2 0
-4 -4 -4 -10z"/>
<path d="M2670 620 c0 -5 7 -7 15 -4 8 4 15 8 15 10 0 2 -7 4 -15 4 -8 0 -15
-4 -15 -10z"/>
<path d="M1275 600 c-3 -5 -1 -10 4 -10 6 0 11 5 11 10 0 6 -2 10 -4 10 -3 0
-8 -4 -11 -10z"/>
<path d="M3400 594 c0 -8 5 -12 10 -9 6 4 8 11 5 16 -9 14 -15 11 -15 -7z"/>
<path d="M3375 590 c3 -5 8 -10 11 -10 2 0 4 5 4 10 0 6 -5 10 -11 10 -5 0 -7
-4 -4 -10z"/>
<path d="M3352 570 c0 -14 2 -19 5 -12 2 6 2 18 0 25 -3 6 -5 1 -5 -13z"/>
<path d="M3497 557 c4 -6 9 -21 10 -31 5 -32 13 -31 13 1 0 19 -6 33 -16 37
-10 4 -13 2 -7 -7z"/>
<path d="M3323 520 c0 -25 2 -35 4 -22 2 12 2 32 0 45 -2 12 -4 2 -4 -23z"/>
<path d="M5458 473 c6 -2 18 -2 25 0 6 3 1 5 -13 5 -14 0 -19 -2 -12 -5z"/>
<path d="M3530 364 c-320 -45 -1385 -93 -2051 -94 -162 0 -188 2 -200 17 -13
15 -11 16 14 9 16 -4 27 -2 27 4 0 6 -45 10 -120 9 -66 0 -120 -4 -120 -9 0
-4 7 -7 16 -6 9 0 19 -5 22 -13 3 -10 0 -12 -12 -8 -10 4 -24 7 -32 7 -8 0
-14 7 -14 16 0 10 -5 12 -12 7 -19 -11 -42 -13 -48 -3 -3 5 -17 6 -30 3 -21
-6 -16 -9 30 -19 l55 -12 -77 -1 c-43 0 -78 3 -78 8 0 5 6 11 13 14 6 2 -3 4
-21 5 -17 0 -41 4 -52 7 -11 3 -20 2 -20 -3 0 -13 27 -23 45 -16 8 4 15 1 15
-5 0 -6 -18 -11 -40 -11 -33 0 -40 3 -38 18 3 16 -12 17 -184 20 -104 1 -188
-1 -188 -6 0 -5 34 -7 75 -4 55 3 75 1 75 -8 0 -8 7 -10 17 -5 24 9 86 10 100
2 6 -4 18 -5 25 -2 8 3 25 1 39 -4 17 -7 -27 -9 -147 -9 -127 1 -176 4 -189
14 -11 8 -15 14 -9 15 5 1 -2 4 -16 8 -30 9 -62 2 -54 -10 3 -5 1 -9 -5 -9 -5
0 -12 6 -14 13 -4 8 -6 8 -6 0 -1 -13 -41 -5 -41 8 0 5 -44 8 -97 8 -59 -1
-86 -4 -68 -8 28 -6 28 -7 8 -13 -15 -4 -30 1 -44 13 -12 10 -36 19 -52 19
-34 0 -33 -2 8 -25 l30 -17 -32 6 c-33 5 -33 5 -33 -34 l0 -40 93 0 c50 0 247
-5 437 -11 356 -11 1194 2 1455 22 160 13 166 13 194 4 17 -6 22 -5 17 3 -5 8
3 12 26 12 129 2 330 12 423 20 61 6 178 15 261 20 83 6 166 12 185 14 19 3
72 7 119 11 113 9 387 44 425 55 42 11 7 10 -105 -6z m-3274 -76 c4 -7 -26 -6
-54 1 -2 1 -1 5 2 10 7 11 44 3 52 -11z m918 -3 c-7 -16 -24 -21 -24 -6 0 8 7
13 27 20 1 1 0 -6 -3 -14z m86 -5 c0 -5 -5 -10 -11 -10 -5 0 -7 5 -4 10 3 6 8
10 11 10 2 0 4 -4 4 -10z m497 -46 c-3 -3 -12 -4 -19 -1 -8 3 -5 6 6 6 11 1
17 -2 13 -5z"/>
<path d="M1350 300 c36 -11 52 -11 45 0 -3 6 -21 10 -38 9 -31 -1 -31 -1 -7
-9z"/>
<path d="M1443 303 c9 -2 25 -2 35 0 9 3 1 5 -18 5 -19 0 -27 -2 -17 -5z"/>
<path d="M5753 193 c9 -2 23 -2 30 0 6 3 -1 5 -18 5 -16 0 -22 -2 -12 -5z"/>
<path d="M5948 183 c7 -3 16 -2 19 1 4 3 -2 6 -13 5 -11 0 -14 -3 -6 -6z"/>
<path d="M5966 29 c-23 -27 -15 -35 9 -9 10 11 16 22 14 25 -3 2 -13 -5 -23
-16z"/>
</g>
</svg>
